<svg width="166" height="152" fill="none" xmlns="http://www.w3.org/2000/svg"><path d="M118.08 104.17a40.75 40.75 0 00-27.16-60.95c-16.64-3.37-34.12 4.46-42.88 18.93a41.43 41.43 0 00-.26 42.03h70.3z" fill="#F8B62D"/><path d="M123.89 83.35a41.74 41.74 0 01-5.8 20.83h8.41a48.83 48.83 0 004.89-20.83c.03 4.83-7.47 4.82-7.5 0z" fill="#333"/><path d="M48.03 62.15c8.77-14.48 26.25-22.3 42.89-18.93a41.34 41.34 0 0132.97 40.13c.03-4.83 7.53-4.83 7.5 0a49 49 0 00-32-45.54C80.5 30.9 58.4 37 45.73 52.52c-11.85 14.5-14.37 34.88-6.4 51.65h8.44a41.43 41.43 0 01.26-42.02z" fill="#333"/><path d="M123.89 83.34c.03 4.83 7.53 4.84 7.5 0-.04-4.83-7.47-4.84-7.5 0zM79.25 4.09v16.82c0 4.83 7.5 4.84 7.5 0V4.1c0-4.82-7.5-4.83-7.5 0zM40.13 16.6l8.42 14.57c2.42 4.18 8.9.41 6.5-3.78l-8.41-14.58c-2.44-4.17-8.92-.4-6.5 3.79zm3.24-1.9l8.42 14.58-8.41-14.58zM16.25 40.5c-4.18-2.42-7.96 4.06-3.78 6.5l14.58 8.42c4.18 2.42 7.96-4.06 3.78-6.5L16.26 40.5zm-1.89 3.24l14.57 8.42-14.57-8.42zM3.75 87.1h16.82c4.82 0 4.84-7.5 0-7.5H3.75c-4.83 0-4.84 7.5 0 7.5zM162.25 79.6h-16.82c-4.83 0-4.84 7.5 0 7.5h16.82c4.83 0 4.84-7.5 0-7.5zM149.75 40.5l-14.58 8.42c-4.18 2.41-.4 8.89 3.79 6.5L153.53 47c4.18-2.45.4-8.94-3.78-6.5zm-12.69 11.65l14.58-8.41-14.57 8.41zM119.39 12.81L111 27.4c-2.42 4.19 4.06 7.97 6.5 3.79l8.42-14.58c2.36-4.19-4.11-7.96-6.53-3.79zm-5.17 16.47l8.41-14.58-8.41 14.58zM161.66 104.17H126.5a51.72 51.72 0 01-2 3.75h19.85v3.75h17.31c4.84 0 4.84-7.5 0-7.5zM4.34 107.92h37a47.23 47.23 0 01-2-3.75h-35c-4.83 0-4.84 7.5 0 7.5h17.31v-3.75H4.34zM118.08 104.17h-70.3a38.5 38.5 0 002.5 3.75h65.3c.9-1.2 1.74-2.45 2.5-3.75z" fill="#333"/><path d="M50.3 107.92a38.5 38.5 0 01-2.5-3.75h-8.47c.6 1.28 1.27 2.53 2 3.75h8.97zM115.59 107.92h8.91a47.08 47.08 0 002-3.75h-8.42c-.76 1.3-1.6 2.55-2.49 3.75zM41.56 108.33l-.23-.4H21.65v3.74h22.14a42.25 42.25 0 01-2.23-3.34zM53.55 111.67h58.89a41.36 41.36 0 003.15-3.75h-65.3a36.51 36.51 0 003.26 3.75zM124.5 107.92a50.54 50.54 0 01-2.45 3.75h22.3v-3.75H124.5z" fill="#333"/><path d="M112.44 111.67H122c.87-1.2 1.7-2.46 2.45-3.75h-8.86a41.36 41.36 0 01-3.16 3.75zM51.23 109.11c-.33-.39-.64-.78-.94-1.19h-8.96l.23.41c.7 1.16 1.45 2.27 2.23 3.34h9.76c-.8-.81-1.57-1.67-2.31-2.56z" fill="#333"/><path d="M145.57 128h-1.22v3.75h1.22c4.83 0 4.84-7.5 0-7.5h-1.22V128h1.22zM20.43 128h1.22v-3.75h-1.22c-4.83 0-4.84 7.5 0 7.5h1.22V128h-1.22zM59.45 130.63l1.14 1.1h1.5l-2.65-1.1zM108.95 124.14c-2.3 1.5-4.73 2.79-7.26 3.86h42.66v-3.75h-29.64c-1.9-.02-3.83-.09-5.75-.11zM103.9 131.73h1.5l1.15-1.1-2.65 1.1z" fill="#7E21F5"/><path d="M103.9 128L83 148l-20.9-20H21.65v3.75H60.6l-1.16-1.1 2.66 1.1h-1.5l19.75 18.9a3.82 3.82 0 005.3 0l19.76-18.9h-1.5l2.65-1.1-1.15 1.1h38.94V128H103.9zM62.1 128h2.55a49.18 49.18 0 01-7.6-3.9c-1.18.07-2.3.15-3.21.15H21.65V128H62.1zM103.9 124.23c-2.17.15-3.62 2-5.09 3.43l-.31.34h3.22a46.96 46.96 0 007.25-3.84 53.5 53.5 0 00-5.07.07z" fill="#7E21F5"/><path d="M64.83 125.4c-1.77-1.54-4.97-1.5-7.77-1.33a49.18 49.18 0 007.6 3.9h3.06c-.95-.86-1.92-1.72-2.9-2.58zM85.65 145.33l-2.64-2.55-2.66 2.55h5.3z" fill="#7E21F5"/><path d="M92.23 133.96L83 142.77c.88.86 1.75 1.71 2.64 2.55h-5.29l2.67-2.54c-4.46-4.36-8.87-8.82-13.43-13.08a49.44 49.44 0 01-4.94-1.72H62.1L83 148l20.9-20h-2.2c-1.67.7-3.38 1.32-5.13 1.82l-4.33 4.14z" fill="#7E21F5"/><path d="M96.58 129.8c1.74-.5 3.45-1.1 5.11-1.8H98.5l-1.92 1.8zM67.72 128h-3.06c1.6.66 3.26 1.23 4.93 1.72a80.98 80.98 0 00-1.87-1.72z" fill="#7E21F5"/><path d="M103.9 144.28c-4.83 0-4.84 7.5 0 7.5h27.35c4.82 0 4.84-7.5 0-7.5H103.9zM62.1 144.28H34.75c-4.82 0-4.84 7.5 0 7.5H62.1c4.82 0 4.83-7.5 0-7.5z" fill="#333"/></svg>