<?xml version="1.0" encoding="UTF-8"?>
<svg data-name="Layer 1" viewBox="0 0 698 698" xmlns="http://www.w3.org/2000/svg">
<defs>
<linearGradient id="a" x1="349" x2="349" y1="698" gradientUnits="userSpaceOnUse">
<stop stop-color="gray" stop-opacity=".25" offset="0"/>
<stop stop-color="gray" stop-opacity=".12" offset=".54"/>
<stop stop-color="gray" stop-opacity=".1" offset="1"/>
</linearGradient>
</defs>
<title>profile pic</title>
<g opacity=".5">
<circle cx="349" cy="349" r="349" fill="url(#a)"/>
</g>
<circle cx="349.68" cy="346.77" r="341.64" fill="#f5f5f5"/>
<path transform="translate(-251 -101)" d="M601,790.76a340,340,0,0,0,187.79-56.2c-12.59-68.8-60.5-72.72-60.5-72.72H464.09s-45.21,3.71-59.33,67A340.07,340.07,0,0,0,601,790.76Z" fill="#fe9c42"/>
<circle cx="346.37" cy="339.57" r="164.9" fill="#333"/>
<path d="m293.15 476.92h105.66v84.53a52.83 52.83 0 0 1-52.81 52.83 52.83 52.83 0 0 1-52.83-52.83v-84.53z" opacity=".1"/>
<path d="m296.5 473h99a3.35 3.35 0 0 1 3.35 3.35v81.18a52.83 52.83 0 0 1-52.85 52.84 52.83 52.83 0 0 1-52.83-52.83v-81.19a3.35 3.35 0 0 1 3.33-3.35z" fill="#fdb797"/>
<path transform="translate(-251 -101)" d="M544.34,617.82a152.07,152.07,0,0,0,105.66.29v-13H544.34Z" opacity=".1"/>
<circle cx="346.37" cy="372.44" r="151.45" fill="#fdb797"/>
<path transform="translate(-251 -101)" d="M489.49,335.68S553.32,465.24,733.37,390l-41.92-65.73-74.31-26.67Z" opacity=".1"/>
<path transform="translate(-251 -101)" d="m489.49 333.78s63.83 129.56 243.88 54.3l-41.92-65.73-74.31-26.67z" fill="#333"/>
<path transform="translate(-251 -101)" d="M488.93,325a87.49,87.49,0,0,1,21.69-35.27c29.79-29.45,78.63-35.66,103.68-69.24,6,9.32,1.36,23.65-9,27.65,24-.16,51.81-2.26,65.38-22a44.89,44.89,0,0,1-7.57,47.4c21.27,1,44,15.4,45.34,36.65.92,14.16-8,27.56-19.59,35.68s-25.71,11.85-39.56,14.9C608.86,369.7,462.54,407.07,488.93,325Z" fill="#333"/>
<ellipse cx="194.86" cy="372.3" rx="14.09" ry="26.42" fill="#fdb797"/>
<ellipse cx="497.8" cy="372.3" rx="14.09" ry="26.42" fill="#fdb797"/>
</svg>
