<svg width="198" height="198" fill="none" xmlns="http://www.w3.org/2000/svg"><path opacity=".4" d="M160.88 142.31V68.06H12.38v74.25h148.5z" fill="#FE9C42"/><path d="M185.63 68.06H12.38v99h173.25" stroke="#333" stroke-width="2" stroke-linecap="round" stroke-linejoin="round"/><path d="M49.5 68.06L99 12.37l49.5 55.7" stroke="#333" stroke-width="2" stroke-linecap="round" stroke-linejoin="round"/><path d="M55.69 103.14a9.28 9.28 0 00-18.56 0v30.94a9.28 9.28 0 1018.56 0v-30.94zM74.25 118.61h9.28a9.28 9.28 0 009.28-9.28v-6.19a9.28 9.28 0 00-9.28-9.28h-9.28v52.6M148.5 146.46v-52.6h9.28a9.28 9.28 0 019.28 9.28v43.32M111.38 118.61h18.56v-15.47a9.28 9.28 0 00-18.56 0v30.94a9.29 9.29 0 0018.56 0v-6.19" stroke="#fff" stroke-width="2" stroke-miterlimit="10"/></svg>