<?xml version="1.0"?>
<svg width="29.94" height="29.94" xmlns="http://www.w3.org/2000/svg" xmlns:svg="http://www.w3.org/2000/svg">
 <g class="layer">
  <title>Layer 1</title>
  <path d="m27.56,0.684l-25.177,0c-1.318,0 -2.383,1.064 -2.383,2.38l0,23.813c0,1.312 1.065,2.379 2.383,2.379l25.177,0c1.312,0 2.38,-1.066 2.38,-2.379l0,-23.813c-0.001,-1.316 -1.069,-2.38 -2.38,-2.38zm-7.435,8.483c-0.619,-0.362 -1.11,-0.648 -1.727,-0.648c-0.604,0 -1.12,0.151 -1.384,0.405c-0.264,0.252 -0.395,0.74 -0.395,1.461l0,1.067l3.229,0l-0.699,2.968l-2.53,0l0,9.862l-4.056,0l0,-9.862l-1.893,0l0,-2.968l1.895,0l0,-1.133c0,-1.193 0.143,-1.907 0.425,-2.496c0.281,-0.587 0.826,-1.241 1.584,-1.611c0.757,-0.369 1.877,-0.555 3.036,-0.555c1.188,0 2.116,0.396 3.254,0.715l-0.739,2.795z" fill="url(#svg_2)" id="svg_1"/>
 </g>
 <defs>
  <linearGradient id="svg_2">
   <stop offset="0" stop-color="#fe9c42" stop-opacity="0.996094"/>
   <stop offset="1" stop-color="#7e21f5" stop-opacity="0.996094"/>
  </linearGradient>
 </defs>
</svg>