<?xml version="1.0" encoding="UTF-8"?>
<svg viewBox="0 0 29.94 29.94" xmlns="http://www.w3.org/2000/svg">
<g class="layer">
<title>Layer 1</title>
<path d="m27.56 0.684h-25.177c-1.318 0-2.383 1.064-2.383 2.38v23.813c0 1.312 1.065 2.379 2.383 2.379h25.177c1.312 0 2.38-1.066 2.38-2.379v-23.813c-1e-3 -1.316-1.069-2.38-2.38-2.38zm-7.435 8.483c-0.619-0.362-1.11-0.648-1.727-0.648-0.604 0-1.12 0.151-1.384 0.405-0.264 0.252-0.395 0.74-0.395 1.461v1.067h3.229l-0.699 2.968h-2.53v9.862h-4.056v-9.862h-1.893v-2.968h1.895v-1.133c0-1.193 0.143-1.907 0.425-2.496 0.281-0.587 0.826-1.241 1.584-1.611 0.757-0.369 1.877-0.555 3.036-0.555 1.188 0 2.116 0.396 3.254 0.715l-0.739 2.795z" fill="url(#a)"/>
</g>
<defs>
<linearGradient id="a">
<stop stop-color="#fe9c42" stop-opacity=".99609" offset="0"/>
<stop stop-color="#7e21f5" stop-opacity=".99609" offset="1"/>
</linearGradient>
</defs>
</svg>
