<?xml version="1.0"?>
<svg width="300" height="300" xmlns="http://www.w3.org/2000/svg" xmlns:svg="http://www.w3.org/2000/svg">
 <g class="layer">
  <title>Layer 1</title>
  <g id="XMLID_504_">
   <path d="m38.52,0.012l222.978,0c21.184,0 38.502,17.324 38.502,38.508l0,222.978c0,21.178 -17.318,38.49 -38.502,38.49l-222.978,0c-21.184,0 -38.52,-17.313 -38.52,-38.49l0,-222.978c0,-21.184 17.336,-38.508 38.52,-38.508zm180.026,33.317c-7.438,0 -13.505,6.091 -13.505,13.525l0,32.314c0,7.437 6.067,13.514 13.505,13.514l33.903,0c7.426,0 13.506,-6.077 13.506,-13.514l0,-32.314c0,-7.434 -6.08,-13.525 -13.506,-13.525l-33.903,0zm47.538,93.539l-26.396,0c2.503,8.175 3.86,16.796 3.86,25.759c0,49.882 -41.766,90.34 -93.266,90.34c-51.487,0 -93.254,-40.458 -93.254,-90.34c0,-8.963 1.37,-17.584 3.861,-25.759l-27.539,0l0,126.732c0,6.563 5.359,11.902 11.916,11.902l208.907,0c6.563,0 11.911,-5.339 11.911,-11.902l0,-126.732zm-115.801,-35.89c-33.26,0 -60.24,26.128 -60.24,58.388c0,32.227 26.98,58.375 60.24,58.375c33.278,0 60.259,-26.148 60.259,-58.375c0,-32.261 -26.981,-58.388 -60.259,-58.388z" fill="url(#svg_16)" id="XMLID_505_"/>
  </g>
  <g id="svg_1"/>
  <g id="svg_2"/>
  <g id="svg_3"/>
  <g id="svg_4"/>
  <g id="svg_5"/>
  <g id="svg_6"/>
  <g id="svg_7"/>
  <g id="svg_8"/>
  <g id="svg_9"/>
  <g id="svg_10"/>
  <g id="svg_11"/>
  <g id="svg_12"/>
  <g id="svg_13"/>
  <g id="svg_14"/>
  <g id="svg_15"/>
 </g>
 <defs>
  <linearGradient id="svg_16">
   <stop offset="0" stop-color="#fe9c42" stop-opacity="0.996094"/>
   <stop offset="1" stop-color="#7e21f5" stop-opacity="0.996094"/>
  </linearGradient>
 </defs>
</svg>