<svg width="166" height="152" fill="none" xmlns="http://www.w3.org/2000/svg"><path d="M65.72 107.92h11.91l2.72-2.6a3.82 3.82 0 015.3 0l2.71 2.6h11.92c0-1.87 1.2-3.75 3.62-3.75h14.18a40.75 40.75 0 00-27.16-60.95c-16.64-3.37-34.12 4.45-42.89 18.93a41.42 41.42 0 00-.26 42.03H62.1c2.4 0 3.62 1.87 3.62 3.74z" fill="#F8B62D"/><path d="M48.03 62.15c8.77-14.48 26.25-22.3 42.89-18.93a41.34 41.34 0 0132.97 40.13c.03-4.83 7.53-4.83 7.5 0a49 49 0 00-32-45.54C80.5 30.9 58.4 37 45.73 52.52c-11.85 14.5-14.37 34.88-6.4 51.65h8.44a41.43 41.43 0 01.26-42.02z" fill="#333"/><path d="M123.89 83.35c.03 4.82 7.53 4.83 7.5 0-.04-4.84-7.47-4.85-7.5 0z" fill="#333"/><path d="M123.89 83.35a41.74 41.74 0 01-5.8 20.83h8.41a48.83 48.83 0 004.89-20.83c.03 4.83-7.47 4.82-7.5 0zM86.75 20.92V4.09c0-4.82-7.5-4.83-7.5 0v16.82c0 4.84 7.5 4.84 7.5.01zM55 27.39l-8.41-14.58c-2.42-4.17-8.9-.4-6.5 3.79l8.41 14.57c2.46 4.18 8.95.41 6.5-3.78zm-3.24 1.9L43.35 14.7l8.41 14.57zM12.47 46.96l14.58 8.41c4.18 2.42 7.96-4.06 3.78-6.5L16.26 40.5c-4.19-2.43-7.97 4.04-3.79 6.46zm1.9-3.24l14.57 8.41-14.58-8.41zM3.75 87.1h16.82c4.82 0 4.84-7.5 0-7.5H3.75c-4.83 0-4.84 7.5 0 7.5zM162.25 79.6h-16.82c-4.83 0-4.84 7.5 0 7.5h16.82c4.83 0 4.84-7.5 0-7.5zM138.96 55.37l14.57-8.41c4.18-2.42.4-8.9-3.78-6.5l-14.58 8.41c-4.17 2.44-.4 8.92 3.79 6.5zm12.67-11.65l-14.57 8.41 14.57-8.41zM117.45 31.18l8.41-14.58c2.42-4.19-4.05-7.97-6.5-3.79L111 27.4c-2.44 4.18 4.03 7.97 6.45 3.79zm5.17-16.47l-8.41 14.58 8.42-14.58z" fill="#333"/><path d="M161.66 104.17H103.9c-2.42 0-3.62 1.88-3.63 3.75 0 1.88 1.21 3.75 3.63 3.75h57.76c4.84 0 4.84-7.5 0-7.5zM43.79 111.67H62.1c2.41 0 3.62-1.87 3.62-3.75 0-1.87-1.2-3.75-3.62-3.75H4.34c-4.83 0-4.83 7.5 0 7.5H43.79z" fill="#333"/><path d="M145.57 124.23h-40.16l-4.36-4.17-12.69-12.14-2.71-2.6a3.82 3.82 0 00-5.3 0l-2.72 2.6-12.59 12.05-4.45 4.25H20.42c-4.82 0-4.83 7.5 0 7.5H51.3c3.57 0 7.23.25 10.8 0 1.93-.13 3.3-1.63 4.61-2.96l.5-.47.29-.29 5.36-5.13.89-.84 9.25-8.85c3.33 3.25 6.63 6.56 10 9.8 1.75 1.7 3.5 3.37 5.31 5l1.05.93c.61.56 1.23 1.12 1.86 1.66 2.5 2.18 7.94 1.17 11 1.17h33.41c4.77-.01 4.78-7.51-.06-7.51z" fill="#FE9C42"/><path d="M131.25 144.28h-96.5c-4.82 0-4.84 7.5 0 7.5h96.5c4.82 0 4.84-7.5 0-7.5z" fill="#333"/></svg>