<svg width="382" height="308" fill="none" xmlns="http://www.w3.org/2000/svg"><g filter="url(#filter0_d)"><g clip-path="url(#clip0)"><path d="M363.83 261.64H7v3.93h356.83v-3.93zM363.83 295.07H7V299h356.83v-3.93z" fill="#FE9C42"/><path d="M333.05 265.26c-.21-.35-5.24-8.74-6.98-26.17-1.6-15.98-.57-42.93 13.4-80.52 26.5-71.21-6.1-128.67-6.43-129.24l1.6-.93c.1.14 8.5 14.8 13.47 38.12a166.22 166.22 0 01-6.89 92.7c-26.44 71.09-6.78 104.74-6.58 105.07l-1.59.97zM322.7 25.15a12.08 12.08 0 100-24.16 12.08 12.08 0 000 24.16z" fill="#27AE60"/><path d="M360.8 69.73a12.08 12.08 0 100-24.16 12.08 12.08 0 000 24.16zM334.77 99.45a12.08 12.08 0 10.01-24.15 12.08 12.08 0 000 24.15zM366.37 124.53a12.08 12.08 0 100-24.16 12.08 12.08 0 000 24.16zM325.48 163.54a12.08 12.08 0 100-24.16 12.08 12.08 0 000 24.16zM340.35 265.7s-12.08-29.72 24.16-52l-24.16 52zM325.5 265.16s-5.5-31.6-48.06-31.33l48.05 31.33z" fill="#27AE60"/><path d="M66.33 187.14a17.82 17.82 0 100-35.63 17.82 17.82 0 000 35.63z" fill="#A0616A"/><path d="M69.56 147.18c-3.41-.84-7.08-.98-10.38.21-3.4 1.23-6.2 3.78-8.26 6.75-2.05 2.97-3.44 6.35-4.68 9.74a34.05 34.05 0 00-1.67 5.71 19.54 19.54 0 003.55 14.91c-.52-1.37.8-2.87 2.24-3.17 1.44-.3 2.9.2 4.33.59 2.5.67 5.09.97 7.68.9 1-.03 2.03-.13 2.86-.68 2.59-1.73 1.22-6.2 3.37-8.44.77-.8 1.86-1.18 2.85-1.68 3.57-1.81 5.92-5.46 7.03-9.3.7-2.4 2.42-9.32.95-11.56-1.33-2.02-7.62-3.43-9.87-3.98z" fill="#333"/><path d="M114.82 149.7a10.6 10.6 0 00-8.12.44c-4.65 2.18-12.87 7.46-12.56 17.45.44 13.9 5.22 23.03 5.22 23.03l-.87 28.23-4.35 51.26s-21.3 17.38-13.03 21.72c8.25 4.35 22.16-20.85 22.16-20.85l10.87-29.1 3.9-28.24s6.53-29.54 0-42.57c0 0 7.54-17.45-3.22-21.38zM166.73 194.53s-7.4 31.27 18.69 39.96c26.08 8.69 60.41 23.46 60.41 23.46l4.35 7.38 10-13.46-1.75-10.43-16.94-4.78s-31.73-24.32-45.64-26.06l1.74-16.07h-30.86zM236.19 169.43l9.2 15.1s30.43 17.38 38.25 29.11c7.83 11.73 26.52 24.33 26.52 24.33l-8.26 19.54s-23.47-27.36-33.47-29.97c-10-2.6-54.33-38.23-54.33-38.23l22.09-19.88z" fill="#A0616A"/><path d="M154.15 116.47c-3.39.53-6.78 1.07-10.14 1.82-7.78 1.73-15.27 4.6-22.58 7.8a264.59 264.59 0 00-29.75 15.32 57.45 57.45 0 00-7.38 5c-1.55 1.3-3 2.77-3.83 4.6a14.5 14.5 0 00-1.01 4.01c-.68 4.83-.65 9.82.66 14.52 1.31 4.7 3.97 9.1 7.88 12.02 1.03.8 2.18 1.43 3.4 1.89 1.65.5 3.36.78 5.08.85 5.48.43 11.21.83 16.29-1.3 3.22-1.34 5.95-3.62 8.92-5.47 12.57-7.82 28.53-7.49 42.27-13 1.34-.53 2.7-1.16 3.63-2.25.71-.94 1.24-2 1.58-3.12l5.2-14.42c1.1-3.04 2.21-6.09 3.13-9.2.97-3.24 1.74-6.54 2.51-9.84.66-2.84 1.34-5.8 1.09-8.74-.38-4.33-1.38-4.5-5.35-3.88l-21.6 3.4z" fill="#7E21F5"/><path d="M101.78 149.7a10.6 10.6 0 00-8.12.44c-4.65 2.18-12.87 7.46-12.55 17.45.43 13.9 5.21 23.03 5.21 23.03l-.87 28.23-4.34 51.26s-21.3 17.38-13.04 21.72c8.25 4.35 22.16-20.85 22.16-20.85l10.87-29.1 3.91-28.24s6.52-29.54 0-42.57c0 0 7.53-17.45-3.23-21.38z" fill="#A0616A"/><path d="M177.23 112.88s38.61-3.5 36.87 20.4c-1.74 23.89-14.78 65.16-14.78 65.16l-33.46 1.73s-4.35-28.23 1.74-37.79l9.63-49.5z" fill="#333"/><path d="M204.1 120.68s9.57 6.08 14.78 18.24c5.22 12.17 20.87 36.06 20.87 36.06l-25.65 18.24-19.12-19.54 9.13-53zM250.18 256.21s-8.26 3.04-2.61 9.12a54.98 54.98 0 018.7 12.6s-1.75 11.3 5.64 10.86c7.4-.43 10.43-15.64 8.7-20.85-1.74-5.21-3.92-29.97-3.92-29.97s-15.2 1.3-14.77 3.47c.43 2.17 2.6 13.03-1.74 14.77zM301.9 247.52s-7.82 3.91-5.65 7.39a566.73 566.73 0 009.13 13.47s-2.61 13.03 4.78 14.33c7.38 1.3 11.73-15.64 10.43-19.11-1.3-3.48-1.3-16.95-1.3-16.95s.43-13.46-3.92-13.46c-4.34 0-11.73 1.74-11.73 1.74s1.74 12.16-1.74 12.6z" fill="#333"/><path d="M61.33 269.4h-12.6v22h12.6v-22z" fill="#27AE60"/></g></g><defs><clipPath id="clip0"><path fill="#fff" d="M7 1h371.45v298H7z"/></clipPath><filter id="filter0_d" x="0" y="0" width="381.45" height="308" filterUnits="userSpaceOnUse" color-interpolation-filters="sRGB"><feFlood flood-opacity="0" result="BackgroundImageFix"/><feColorMatrix in="SourceAlpha" values="0 0 0 0 0 0 0 0 0 0 0 0 0 0 0 0 0 0 127 0"/><feOffset dx="-2" dy="4"/><feGaussianBlur stdDeviation="2.5"/><feColorMatrix values="0 0 0 0 0 0 0 0 0 0 0 0 0 0 0 0 0 0 0.25 0"/><feBlend in2="BackgroundImageFix" result="effect1_dropShadow"/><feBlend in="SourceGraphic" in2="effect1_dropShadow" result="shape"/></filter></defs></svg>