<svg width="441" height="308" fill="none" xmlns="http://www.w3.org/2000/svg"><g filter="url(#filter0_d)"><path d="M51.42 108.64H15.4v5.48h36.02v-5.48z" fill="#333"/><path d="M15.4 114l-4.08 185h2.55l5.65-184.88-4.12-.12zM51.42 114l4.07 185h-2.55L47.3 114.12l4.12-.12z" fill="#EEE"/><path d="M23.08 114.13L18.7 299h3.05l4.04-185-2.72.13zM44.5 114.13L48.87 299h-3.06L41.8 114l2.71.13z" fill="#E0E0E0"/><path d="M45.44 276.55H22.27v2.8h23.17v-2.8zM46.46 260.98H21.5v2.8h24.95v-2.8zM46.46 245.67H22.27v2.8h24.19v-2.8zM45.44 230.1H22.27v2.8h23.17v-2.8zM45.44 214.03H22.27v2.55h23.17v-2.55zM45.44 198.72h-22.4v3.06h22.4v-3.06zM44.67 183.4H23.04v2.04h21.63v-2.04zM42.89 167.07h-19.1v3.32h19.1v-3.31zM43.65 151.76H23.8v2.81h19.85v-2.8zM43.65 135.94H23.8V139h19.85v-3.06zM42.89 120.38H24.82v3.06h18.07v-3.06z" fill="#E0E0E0"/><path d="M59.94 98.18H7v11.23h52.94V98.18z" fill="#27AE60"/><path opacity=".5" d="M57.15 19.2L38.73 31.24c-.18-.74-.6-1.4-1.2-1.89.22-.58.26-1.2.1-1.8-.02-.18-.09-.34-.19-.49a.8.8 0 00-.72-.2l-2.92.2c-.34-.02-.68.07-.96.27-.41.35-.54 1.07-.96 1.38-.28.2-.64.18-.95.34-.68.36-.82 1.43-.88 2.31-.07 1.2-.06 2.6.72 3.35.56.54 1.35.48 2.07.45l.72-.06c.18.1.38.2.57.27v1.02H34s-8.25-2.4-17.32 22.63h-.16s-1.33 4.56.8 3.76c1.87-.7 1.92-3.04 1.89-3.62h.12s3.74-10.98 9.62-12.32c0 0 4.28 5.35-2.67 16.06h5.44c-.02 1.2.22 2.4.7 3.49 1.6 3.21-3.2 33.75-3.2 33.75h4L35.25 90l.26 10.12h2.94l2.94-19.46-.4-23.44v-6.07l.53.72V42.5h7.75l1.33-10.45h-.13c.03-.72 0-1.46-.1-2.18l10-2.1c1.56-6.7-3.21-8.56-3.21-8.56zM48.4 32.23l-2.34 6s-6.41-2.95-8.82-1.87h-.13v-1.28a3.47 3.47 0 001.72-2.77l9.63-2.02c-.12.64-.15 1.29-.06 1.93z" fill="url(#paint0_linear)"/><path d="M49.86 33.76s.3-4.43-1.07-3.46c-1.38.97-.79 3.73-.79 3.73l1.86-.27zM17.56 59s-1.27 4.34.77 3.58C20.36 61.82 20.1 59 20.1 59h-2.55zM37.16 35.78h-2.8v2.56h2.8v-2.56z" fill="#FDA57D"/><path d="M34.36 49.82h-2.29V61.3h2.29V49.82z" fill="#4D8AF0"/><path opacity=".1" d="M34.36 49.82h-2.29V61.3h2.29V49.82z" fill="#000"/><path d="M35.45 37.45h2.65a2.74 2.74 0 012.75 2.75v17.15h-8.12V40.2a2.76 2.76 0 012.72-2.75z" fill="#fff"/><path d="M35.5 36.67a3.31 3.31 0 100-6.62 3.31 3.31 0 000 6.62z" fill="#FDA57D"/><path d="M34.24 37.45s-7.9-2.3-16.55 21.68h2.55S23.8 48.67 29.4 47.4c0 0 4.07 5.1-2.55 15.33h5.35V59.3a59.84 59.84 0 011.91-15.37c.61-2.12.66-4.36.13-6.5zM37.29 37.45v.76s1.78 7.91 3.3 13.01l.79 1.04v-8.95h7.38l1.27-9.95h-2.04l-2.31 5.87s-6.1-2.81-8.4-1.78z" fill="#7E21F5"/><path d="M32.7 57.35s-1.52 5.61 0 8.67c1.54 3.07-3.05 32.16-3.05 32.16h3.83l5.47-27.44.89-13.41-7.13.02z" fill="#FE9C42"/><path d="M40.85 57.35l.39 22.32-2.8 18.5h-2.8l-1.02-40.82h6.23z" fill="#FE9C42"/><path d="M34.97 32.1c.06-.12.15-.22.24-.3.1-.06.2-.09.32-.09.7-.06 1.5-.07 1.91-.73.31-.59.39-1.27.21-1.91a1.08 1.08 0 00-.18-.48.77.77 0 00-.7-.2l-2.78.19c-.32-.02-.63.08-.9.26-.38.33-.5 1.02-.91 1.31-.27.2-.61.18-.9.33-.64.34-.78 1.35-.83 2.2-.07 1.14-.07 2.48.68 3.18.54.5 1.29.48 1.97.42l1.27-.1c.13 0 .26-.04.36-.11a.96.96 0 00.17-.77c-.03-.64-.1-1.37-.52-1.76-.1-.08-.19-.16-.27-.26-.45-.7.62-.87.86-1.19z" fill="#333"/><path d="M56.25 21.12s4.59 1.79 3.06 8.15L38.69 33.6v-1.02l17.56-11.46z" fill="#222"/><path d="M56.25 21.12s4.59 1.79 3.06 8.15L38.69 33.6v-1.02l17.56-11.46z" fill="url(#paint1_linear)"/><path opacity=".1" d="M51.42 111.28h-35.9v1.02h35.9v-1.02zM24.18 181.24h-2.8v.51h2.8v-.51zM46.07 181.24h-2.8v.51h2.8v-.51z" fill="#000"/><path d="M51.3 177.03H15.4v4.33h35.9v-4.33z" fill="#EEE"/><path d="M79.23 19.37l.36-.18h-.08l.03-.03-.06.02-9.86-1.28.2 3.27.32 2.9.6-.3.57 1.28 7.92-5.68z" fill="url(#paint2_linear)"/><path d="M70.16 21.1l.29 2.67 8.81-4.48-7.65.16-1.45 1.66z" fill="#FE9C42"/><path opacity=".2" d="M70.16 21.1l.29 2.67 8.81-4.48-7.65.16-1.45 1.66z" fill="#000"/><path d="M69.96 18.11l9.3 1.18-9.1 1.82-.2-3z" fill="#FE9C42"/><path d="M71.54 24.65l7.67-5.4-8.9 2.66 1.23 2.74z" fill="#FE9C42"/><path d="M127.06 5.68l.36-.19-.1-.01.04-.02-.05.02-9.87-1.28.21 3.27.31 2.9.61-.3.56 1.28 7.93-5.67z" fill="url(#paint3_linear)"/><path d="M117.98 7.41l.29 2.66 8.82-4.48-7.66.17-1.45 1.65z" fill="#FE9C42"/><path opacity=".2" d="M117.98 7.41l.29 2.66 8.82-4.48-7.66.17-1.45 1.65z" fill="#000"/><path d="M117.79 4.42l9.3 1.17-9.1 1.82-.2-3z" fill="#FE9C42"/><path d="M119.36 10.95l7.67-5.39-8.9 2.65 1.23 2.74z" fill="#FE9C42"/><path d="M210.85 1.4l.49-.37h-.13l.03-.03-.07.04-15.2.63 1.18 4.87 1.2 4.3.84-.64 1.18 1.8 10.48-10.6z" fill="url(#paint4_linear)"/><path d="M197.63 6.36l1.11 3.93 12.13-9.03-11.49 2.24-1.75 2.86z" fill="#FE9C42"/><path opacity=".2" d="M197.63 6.36l1.11 3.93 12.13-9.03-11.49 2.24-1.75 2.86z" fill="#000"/><path d="M196.56 1.9l14.31-.64-13.24 5.1-1.07-4.46z" fill="#FE9C42"/><path d="M200.61 11.34l10.17-10.11-12.72 6.3 2.55 3.8z" fill="#FE9C42"/><path d="M170.52 28.98l.39-.09-.08-.03.03-.01h-.06l-9.26-3.62-.58 3.23-.4 2.89.67-.16.23 1.38 9.06-3.59z" fill="url(#paint5_linear)"/><path d="M161.3 28.48l-.37 2.64 9.63-2.21-7.47-1.69-1.8 1.26z" fill="#FE9C42"/><path opacity=".2" d="M161.3 28.48l-.37 2.64 9.63-2.21-7.47-1.69-1.8 1.26z" fill="#000"/><path d="M161.82 25.52l8.75 3.39-9.28-.43.53-2.96z" fill="#FE9C42"/><path d="M161.78 32.24l8.74-3.38-9.27.43.53 2.95z" fill="#FE9C42"/><g opacity=".5"><path opacity=".5" d="M116.02 63.1l.36-.18-.08-.01.02-.02-.05.01-9.87-1.27.22 3.27.3 2.9.61-.31.56 1.28 7.93-5.66z" fill="url(#paint6_linear)"/><path opacity=".5" d="M106.95 64.84l.28 2.65 8.82-4.47-7.66.16-1.44 1.66z" fill="#FE9C42"/><path opacity=".2" d="M106.95 64.84l.28 2.65 8.82-4.47-7.66.16-1.44 1.66z" fill="#000"/><path opacity=".5" d="M106.75 61.84l9.3 1.17-9.1 1.83-.2-3z" fill="#FE9C42"/><path opacity=".5" d="M108.32 68.38l7.68-5.4-8.9 2.66 1.22 2.74z" fill="#FE9C42"/></g><g opacity=".2"><path opacity=".2" d="M222.93 19.32l.5-.38h-.13l.03-.03-.07.04-15.19.62 1.17 4.88 1.2 4.3.84-.63 1.18 1.78 10.47-10.58z" fill="url(#paint7_linear)"/><path opacity=".2" d="M209.71 24.27l1.12 3.93 12.13-9.03-11.5 2.24-1.75 2.86z" fill="#FE9C42"/><path opacity=".2" d="M209.71 24.27l1.12 3.93 12.13-9.03-11.5 2.24-1.75 2.86z" fill="#000"/><path opacity=".2" d="M208.65 19.81l14.3-.64-13.24 5.1-1.06-4.46z" fill="#FE9C42"/><path opacity=".2" d="M212.7 29.25l10.17-10.1-12.72 6.3 2.55 3.8z" fill="#FE9C42"/></g><g opacity=".3"><path opacity=".3" d="M263.4 72.52l.49-.36h-.13l.04-.04-.08.04-15.19.63 1.17 4.88 1.21 4.29.84-.63 1.18 1.79 10.47-10.6z" fill="url(#paint8_linear)"/><path opacity=".3" d="M250.18 77.48l1.11 3.93 12.14-9.03-11.5 2.24-1.75 2.86z" fill="#FE9C42"/><path opacity=".2" d="M250.18 77.48l1.11 3.93 12.14-9.03-11.5 2.24-1.75 2.86z" fill="#000"/><path opacity=".3" d="M249.11 73.02l14.31-.64-13.24 5.1-1.07-4.46z" fill="#FE9C42"/><path opacity=".3" d="M253.16 82.46l10.17-10.1-12.72 6.3 2.55 3.8z" fill="#FE9C42"/></g><g opacity=".3"><path opacity=".3" d="M388.47 98.87l.5-.37h-.14l.04-.03-.07.03-15.2.63 1.17 4.88 1.21 4.29.84-.63 1.18 1.79 10.47-10.59z" fill="url(#paint9_linear)"/><path opacity=".3" d="M375.25 103.83l1.12 3.92 12.13-9.03-11.5 2.24-1.75 2.87z" fill="#FE9C42"/><path opacity=".2" d="M375.25 103.83l1.12 3.92 12.13-9.03-11.5 2.24-1.75 2.87z" fill="#000"/><path opacity=".3" d="M374.19 99.37l14.3-.65-13.24 5.11-1.06-4.46z" fill="#FE9C42"/><path opacity=".3" d="M378.23 108.8l10.18-10.1-12.72 6.3 2.54 3.8z" fill="#FE9C42"/></g><g opacity=".5"><path opacity=".5" d="M172.1 71.66l.39-.1-.09-.02.04-.02h-.06l-9.27-3.62-.57 3.23-.4 2.9.66-.16.24 1.38 9.05-3.59z" fill="url(#paint10_linear)"/><path opacity=".5" d="M162.87 71.15l-.36 2.64 9.63-2.21-7.47-1.69-1.8 1.26z" fill="#FE9C42"/><path opacity=".2" d="M162.87 71.15l-.36 2.64 9.63-2.21-7.47-1.69-1.8 1.26z" fill="#000"/><path opacity=".5" d="M163.4 68.2l8.74 3.38-9.27-.43.53-2.96z" fill="#FE9C42"/><path opacity=".5" d="M163.35 74.92l8.75-3.38-9.28.42.53 2.96z" fill="#FE9C42"/></g><g opacity=".5"><path opacity=".5" d="M343.94 134.35l.39-.09-.08-.03.03-.01h-.06l-9.26-3.62-.58 3.22-.4 2.9.66-.16.24 1.38 9.06-3.59z" fill="url(#paint11_linear)"/><path opacity=".5" d="M334.71 133.84l-.36 2.65 9.64-2.22-7.48-1.68-1.8 1.25z" fill="#FE9C42"/><path opacity=".2" d="M334.71 133.84l-.36 2.65 9.64-2.22-7.48-1.68-1.8 1.25z" fill="#000"/><path opacity=".5" d="M335.24 130.89l8.75 3.39-9.28-.44.53-2.95z" fill="#FE9C42"/><path opacity=".5" d="M335.2 137.61l8.74-3.38-9.27.43.52 2.95z" fill="#FE9C42"/></g><g opacity=".5"><path opacity=".5" d="M333.43 67.97l.39-.1-.08-.02.03-.02h-.06l-9.26-3.62-.58 3.23-.4 2.9.67-.16.24 1.38 9.05-3.59z" fill="url(#paint12_linear)"/><path opacity=".5" d="M324.2 67.46l-.36 2.65 9.64-2.22-7.48-1.68-1.8 1.25z" fill="#FE9C42"/><path opacity=".2" d="M324.2 67.46l-.36 2.65 9.64-2.22-7.48-1.68-1.8 1.25z" fill="#000"/><path opacity=".5" d="M324.73 64.5l8.75 3.4-9.28-.44.53-2.95z" fill="#FE9C42"/><path opacity=".5" d="M324.69 71.23l8.74-3.38-9.27.43.53 2.95z" fill="#FE9C42"/></g><g opacity=".2"><path opacity=".2" d="M420.66 12.65l.4-.09-.08-.03.03-.01h-.06l-9.27-3.62-.58 3.22-.4 2.9.67-.16.24 1.38 9.05-3.59z" fill="url(#paint13_linear)"/><path opacity=".2" d="M411.44 12.14l-.37 2.65 9.64-2.22-7.47-1.68-1.8 1.25z" fill="#FE9C42"/><path opacity=".2" d="M411.44 12.14l-.37 2.65 9.64-2.22-7.47-1.68-1.8 1.25z" fill="#000"/><path opacity=".2" d="M411.97 9.19l8.74 3.39-9.27-.44.53-2.95z" fill="#FE9C42"/><path opacity=".2" d="M411.92 15.91l8.75-3.38-9.27.43.52 2.95z" fill="#FE9C42"/></g><g opacity=".2"><path opacity=".2" d="M98 30.57l.39-.1-.08-.03h.03-.06l-9.26-3.63-.58 3.23-.4 2.89.67-.16.23 1.38L98 30.57z" fill="url(#paint14_linear)"/><path opacity=".2" d="M88.77 30.06l-.36 2.64 9.63-2.21-7.47-1.69-1.8 1.26z" fill="#FE9C42"/><path opacity=".2" d="M88.77 30.06l-.36 2.64 9.63-2.21-7.47-1.69-1.8 1.26z" fill="#000"/><path opacity=".2" d="M89.3 27.1l8.74 3.39-9.27-.43.53-2.96z" fill="#FE9C42"/><path opacity=".2" d="M89.26 33.82L98 30.45l-9.28.42.54 2.95z" fill="#FE9C42"/></g><path d="M285.05 18.82l.54-.29-.13-.01.05-.03-.08.02-15.08-1.95.33 5 .47 4.44.93-.48.86 1.96 12.1-8.66z" fill="url(#paint15_linear)"/><path d="M271.18 21.47l.44 4.05 13.47-6.84-11.7.26-2.2 2.53z" fill="#FE9C42"/><path opacity=".2" d="M271.18 21.47l.44 4.05 13.47-6.84-11.7.26-2.2 2.53z" fill="#000"/><path d="M270.88 16.89l14.21 1.79-13.9 2.79-.31-4.58z" fill="#FE9C42"/><path d="M273.28 26.88l11.74-8.24-13.6 4.05 1.86 4.19z" fill="#FE9C42"/><path d="M320.15 96.24l1.4.08-.23-.18.12-.01-.19-.05-27.34-21.55-5.2 10.21-4.26 9.28 2.38.14-.6 4.87 33.92-2.8z" fill="url(#paint16_linear)"/><path d="M289.8 85.14l-3.88 8.49 34.48 2.39-23.29-13.24-7.3 2.36z" fill="#FE9C42"/><path opacity=".2" d="M289.8 85.14l-3.88 8.49 34.48 2.39-23.29-13.24-7.3 2.36z" fill="#000"/><path d="M294.57 75.8l25.83 20.22-30.6-10.88 4.77-9.34z" fill="#FE9C42"/><path d="M287.6 98.25l32.7-2.4-31.47-8.03-1.22 10.43z" fill="#FE9C42"/><path d="M435.06 177.83l2.94.1-.5-.38.24-.03-.4-.08-58.41-43.26-10.23 21.66-8.3 19.62 4.98.16-.95 10.19 70.63-7.98z" fill="url(#paint17_linear)"/><path d="M371.02 156.6l-7.58 17.96 72.14 2.8-49.46-26.16-15.1 5.4z" fill="#FE9C42"/><path opacity=".2" d="M371.02 156.6l-7.58 17.96 72.14 2.8-49.46-26.16-15.1 5.4z" fill="#000"/><path d="M380.38 136.8l55.2 40.57-64.56-20.76 9.36-19.8z" fill="#FE9C42"/><path d="M367.26 184.1l68.07-7.1-66.17-14.74-1.9 21.83z" fill="#FE9C42"/><path d="M385.05 13.08l1.28-.58-.3-.05.1-.07-.18.05-34.22-6.24.16 11.48.56 10.19 2.18-.99 1.74 4.59 28.68-18.38z" fill="url(#paint18_linear)"/><path d="M353.05 17.5l.52 9.33 31.6-14.06-26.76-.78-5.36 5.52z" fill="#FE9C42"/><path opacity=".2" d="M353.05 17.5l.52 9.33 31.6-14.06-26.76-.78-5.36 5.52z" fill="#000"/><path d="M352.9 7.01l32.27 5.76-32.12 4.73-.14-10.49z" fill="#FE9C42"/><path d="M357.22 30.12L385 12.67l-31.55 7.66 3.78 9.79z" fill="#FE9C42"/><path d="M421.3 51.54l1.3-.58-.3-.05.1-.07-.19.05-34.22-6.24.16 11.48.56 10.19 2.18-.99 1.74 4.58 28.68-18.37z" fill="url(#paint19_linear)"/><path d="M389.32 55.97l.51 9.32 31.6-14.06-26.77-.78-5.34 5.52z" fill="#FE9C42"/><path opacity=".2" d="M389.32 55.97l.51 9.32 31.6-14.06-26.77-.78-5.34 5.52z" fill="#000"/><path d="M389.16 45.47l32.27 5.76-32.11 4.74-.16-10.5z" fill="#FE9C42"/><path d="M393.48 68.58l27.77-17.45-31.55 7.66 3.78 9.79z" fill="#FE9C42"/><path d="M237.6 49.26l.56-.28-.13-.02.04-.03-.08.03L222.9 47l.33 5 .47 4.44.93-.48.86 1.97 12.1-8.67z" fill="url(#paint20_linear)"/><path d="M223.75 51.91l.43 4.06 13.48-6.84-11.7.25-2.22 2.53z" fill="#FE9C42"/><path opacity=".2" d="M223.75 51.91l.43 4.06 13.48-6.84-11.7.25-2.22 2.53z" fill="#000"/><path d="M223.44 47.33l14.22 1.8-13.91 2.78-.3-4.58z" fill="#FE9C42"/><path d="M225.84 57.32l11.73-8.24-13.6 4.06 1.87 4.18z" fill="#FE9C42"/><path d="M328.52 42.41l.55-.28-.13-.02.04-.03-.08.03-15.07-1.96.32 5 .48 4.44.92-.47.86 1.96 12.11-8.67z" fill="url(#paint21_linear)"/><path d="M314.66 45.06l.44 4.06 13.47-6.85-11.7.26-2.21 2.53z" fill="#FE9C42"/><path opacity=".2" d="M314.66 45.06l.44 4.06 13.47-6.85-11.7.26-2.21 2.53z" fill="#000"/><path d="M314.36 40.49l14.21 1.78-13.91 2.8-.3-4.58z" fill="#FE9C42"/><path d="M316.76 50.47l11.73-8.24-13.6 4.06 1.87 4.18z" fill="#FE9C42"/></g><defs><linearGradient id="paint0_linear" x1="38.39" y1="100.09" x2="38.39" y2="19.2" gradientUnits="userSpaceOnUse"><stop stop-color="gray" stop-opacity=".25"/><stop offset=".54" stop-color="gray" stop-opacity=".12"/><stop offset="1" stop-color="gray" stop-opacity=".1"/></linearGradient><linearGradient id="paint1_linear" x1="38.69" y1="26.91" x2="59.03" y2="26.83" gradientUnits="userSpaceOnUse"><stop stop-color="#7E21F5"/><stop offset="1" stop-color="#FE9C42"/></linearGradient><linearGradient id="paint2_linear" x1="3878.88" y1="3332.18" x2="3871.79" y2="3224.34" gradientUnits="userSpaceOnUse"><stop stop-color="gray" stop-opacity=".25"/><stop offset=".54" stop-color="gray" stop-opacity=".12"/><stop offset="1" stop-color="gray" stop-opacity=".1"/></linearGradient><linearGradient id="paint3_linear" x1="4930.05" y1="3091.93" x2="4922.96" y2="2984.09" gradientUnits="userSpaceOnUse"><stop stop-color="gray" stop-opacity=".25"/><stop offset=".54" stop-color="gray" stop-opacity=".12"/><stop offset="1" stop-color="gray" stop-opacity=".1"/></linearGradient><linearGradient id="paint4_linear" x1="11005.8" y1="3011.53" x2="10946.5" y2="2764.71" gradientUnits="userSpaceOnUse"><stop stop-color="gray" stop-opacity=".25"/><stop offset=".54" stop-color="gray" stop-opacity=".12"/><stop offset="1" stop-color="gray" stop-opacity=".1"/></linearGradient><linearGradient id="paint5_linear" x1="5041.24" y1="4866.01" x2="5060.95" y2="4756.73" gradientUnits="userSpaceOnUse"><stop stop-color="gray" stop-opacity=".25"/><stop offset=".54" stop-color="gray" stop-opacity=".12"/><stop offset="1" stop-color="gray" stop-opacity=".1"/></linearGradient><linearGradient id="paint6_linear" x1="4668.17" y1="4012.63" x2="4661.09" y2="3904.86" gradientUnits="userSpaceOnUse"><stop stop-color="gray" stop-opacity=".25"/><stop offset=".54" stop-color="gray" stop-opacity=".12"/><stop offset="1" stop-color="gray" stop-opacity=".1"/></linearGradient><linearGradient id="paint7_linear" x1="11363.9" y1="3421.53" x2="11304.5" y2="3174.61" gradientUnits="userSpaceOnUse"><stop stop-color="gray" stop-opacity=".25"/><stop offset=".54" stop-color="gray" stop-opacity=".12"/><stop offset="1" stop-color="gray" stop-opacity=".1"/></linearGradient><linearGradient id="paint8_linear" x1="12585.8" y1="4629.58" x2="12526.4" y2="4382.65" gradientUnits="userSpaceOnUse"><stop stop-color="gray" stop-opacity=".25"/><stop offset=".54" stop-color="gray" stop-opacity=".12"/><stop offset="1" stop-color="gray" stop-opacity=".1"/></linearGradient><linearGradient id="paint9_linear" x1="16614.3" y1="4978.79" x2="16555" y2="4731.97" gradientUnits="userSpaceOnUse"><stop stop-color="gray" stop-opacity=".25"/><stop offset=".54" stop-color="gray" stop-opacity=".12"/><stop offset="1" stop-color="gray" stop-opacity=".1"/></linearGradient><linearGradient id="paint10_linear" x1="5115.94" y1="5572.69" x2="5135.66" y2="5463.41" gradientUnits="userSpaceOnUse"><stop stop-color="gray" stop-opacity=".25"/><stop offset=".54" stop-color="gray" stop-opacity=".12"/><stop offset="1" stop-color="gray" stop-opacity=".1"/></linearGradient><linearGradient id="paint11_linear" x1="9029.26" y1="6828.25" x2="9048.97" y2="6718.97" gradientUnits="userSpaceOnUse"><stop stop-color="gray" stop-opacity=".25"/><stop offset=".54" stop-color="gray" stop-opacity=".12"/><stop offset="1" stop-color="gray" stop-opacity=".1"/></linearGradient><linearGradient id="paint12_linear" x1="8732.22" y1="5718.56" x2="8751.92" y2="5609.36" gradientUnits="userSpaceOnUse"><stop stop-color="gray" stop-opacity=".25"/><stop offset=".54" stop-color="gray" stop-opacity=".12"/><stop offset="1" stop-color="gray" stop-opacity=".1"/></linearGradient><linearGradient id="paint13_linear" x1="10638.4" y1="4916.98" x2="10658.1" y2="4807.7" gradientUnits="userSpaceOnUse"><stop stop-color="gray" stop-opacity=".25"/><stop offset=".54" stop-color="gray" stop-opacity=".12"/><stop offset="1" stop-color="gray" stop-opacity=".1"/></linearGradient><linearGradient id="paint14_linear" x1="3417.5" y1="4799.5" x2="3437.21" y2="4690.22" gradientUnits="userSpaceOnUse"><stop stop-color="gray" stop-opacity=".25"/><stop offset=".54" stop-color="gray" stop-opacity=".12"/><stop offset="1" stop-color="gray" stop-opacity=".1"/></linearGradient><linearGradient id="paint15_linear" x1="12642.9" y1="5116.9" x2="12626.3" y2="4865.11" gradientUnits="userSpaceOnUse"><stop stop-color="gray" stop-opacity=".25"/><stop offset=".54" stop-color="gray" stop-opacity=".12"/><stop offset="1" stop-color="gray" stop-opacity=".1"/></linearGradient><linearGradient id="paint16_linear" x1="19101.5" y1="29918.5" x2="19691.8" y2="28766.5" gradientUnits="userSpaceOnUse"><stop stop-color="gray" stop-opacity=".25"/><stop offset=".54" stop-color="gray" stop-opacity=".12"/><stop offset="1" stop-color="gray" stop-opacity=".1"/></linearGradient><linearGradient id="paint17_linear" x1="50069.2" y1="77379.5" x2="52523.5" y2="72255.5" gradientUnits="userSpaceOnUse"><stop stop-color="gray" stop-opacity=".25"/><stop offset=".54" stop-color="gray" stop-opacity=".12"/><stop offset="1" stop-color="gray" stop-opacity=".1"/></linearGradient><linearGradient id="paint18_linear" x1="34430.8" y1="14035.4" x2="34417.5" y2="12700" gradientUnits="userSpaceOnUse"><stop stop-color="gray" stop-opacity=".25"/><stop offset=".54" stop-color="gray" stop-opacity=".12"/><stop offset="1" stop-color="gray" stop-opacity=".1"/></linearGradient><linearGradient id="paint19_linear" x1="37073.3" y1="16102.7" x2="37059.9" y2="14767.3" gradientUnits="userSpaceOnUse"><stop stop-color="gray" stop-opacity=".25"/><stop offset=".54" stop-color="gray" stop-opacity=".12"/><stop offset="1" stop-color="gray" stop-opacity=".1"/></linearGradient><linearGradient id="paint20_linear" x1="11068" y1="5873.99" x2="11051.5" y2="5622.2" gradientUnits="userSpaceOnUse"><stop stop-color="gray" stop-opacity=".25"/><stop offset=".54" stop-color="gray" stop-opacity=".12"/><stop offset="1" stop-color="gray" stop-opacity=".1"/></linearGradient><linearGradient id="paint21_linear" x1="14054.9" y1="5650.94" x2="14038.3" y2="5399.15" gradientUnits="userSpaceOnUse"><stop stop-color="gray" stop-opacity=".25"/><stop offset=".54" stop-color="gray" stop-opacity=".12"/><stop offset="1" stop-color="gray" stop-opacity=".1"/></linearGradient><filter id="filter0_d" x="0" y="0" width="441" height="308" filterUnits="userSpaceOnUse" color-interpolation-filters="sRGB"><feFlood flood-opacity="0" result="BackgroundImageFix"/><feColorMatrix in="SourceAlpha" values="0 0 0 0 0 0 0 0 0 0 0 0 0 0 0 0 0 0 127 0"/><feOffset dx="-2" dy="4"/><feGaussianBlur stdDeviation="2.5"/><feColorMatrix values="0 0 0 0 0 0 0 0 0 0 0 0 0 0 0 0 0 0 0.25 0"/><feBlend in2="BackgroundImageFix" result="effect1_dropShadow"/><feBlend in="SourceGraphic" in2="effect1_dropShadow" result="shape"/></filter></defs></svg>