<svg width="441" height="308" fill="none" xmlns="http://www.w3.org/2000/svg"><g filter="url(#filter0_d)"><path d="M51 109H15v5h36v-5z" fill="#333"/><path d="M15 114l-4 185h3l6-185h-5zM51 114l4 185h-2l-6-185h4z" fill="#EEE"/><path d="M23 114l-4 185h3l4-185h-3zM45 114l4 185h-3l-4-185h3z" fill="#E0E0E0"/><path d="M45 277H22v2h23v-2zM46 261H22v3h24v-3zM46 246H22v2h24v-2zM45 230H22v3h23v-3zM45 214H22v3h23v-3zM45 199H23v3h22v-3zM45 183H23v2h22v-2zM43 167H24v3h19v-3zM44 152H24v3h20v-3zM44 136H24v3h20v-3zM43 120H25v3h18v-3z" fill="#E0E0E0"/><path d="M60 98H7v11h53V98z" fill="#27AE60"/><path opacity=".5" d="M57 19L39 31l-1-2v-1l-1-1h-4l-1 2h-1l-1 2 1 4h3v1s-8-2-17 23c0 0-2 5 0 4s2-3 2-4c0 0 4-11 10-12 0 0 4 5-3 16h6v3c2 4-3 34-3 34h4l2-10v10h3l3-19V51l1 1V42h7l2-10h-1v-2l10-2c2-7-3-9-3-9zm-9 13l-2 6s-6-3-9-2v-1a3 3 0 002-3l9-2v2z" fill="url(#paint0_linear)"/><path d="M50 34s0-5-1-4c-2 1-1 4-1 4h2zM18 59s-2 4 0 4c2-1 2-4 2-4h-2zM37 36h-3v2h3v-2z" fill="#FDA57D"/><path d="M34 50h-2v11h2V50z" fill="#4D8AF0"/><path opacity=".1" d="M34 50h-2v11h2V50z" fill="#000"/><path d="M35 37h3a3 3 0 013 3v17h-8V40a3 3 0 012-3z" fill="#fff"/><path d="M36 37a3 3 0 10-1-7 3 3 0 001 7z" fill="#FDA57D"/><path d="M34 37s-8-2-16 22h2s4-10 9-12c0 0 4 5-2 16h5v-4l2-15v-7zM37 37v1l4 13v1-9h8l1-10h-2l-2 6s-6-3-9-2z" fill="#7E21F5"/><path d="M33 57s-2 6 0 9c1 3-3 32-3 32h3l6-27 1-14h-7z" fill="#FE9C42"/><path d="M41 57v23l-3 18h-2l-1-41h6z" fill="#FE9C42"/><path d="M35 32h1l1-1 1-2h-1a1 1 0 000-1l-3 1h-1l-1 1h-1l-1 3 1 3h4a1 1 0 000-1l-1-1v-1l1-1z" fill="#333"/><path d="M56 21s5 2 3 8l-20 5v-1l17-12z" fill="#222"/><path d="M56 21s5 2 3 8l-20 5v-1l17-12z" fill="url(#paint1_linear)"/><path opacity=".1" d="M51 111H16v1h35v-1zM24 181h-3v1h3v-1zM46 181h-3v1h3v-1z" fill="#000"/><path d="M51 177H15v4h36v-4z" fill="#EEE"/><path d="M79 19h1-1l-9-1v6h1v1l8-6z" fill="url(#paint2_linear)"/><path d="M70 21v3l9-5h-7l-2 2z" fill="#FE9C42"/><path opacity=".2" d="M70 21v3l9-5h-7l-2 2z" fill="#000"/><path d="M70 18l9 1-9 2v-3zM72 25l7-6-9 3 2 3z" fill="#FE9C42"/><path d="M127 6V5l-10-1 1 3v3h1v1l8-5z" fill="url(#paint3_linear)"/><path d="M118 7v3l9-4h-8l-1 1z" fill="#FE9C42"/><path opacity=".2" d="M118 7v3l9-4h-8l-1 1z" fill="#000"/><path d="M118 4l9 2-9 1V4zM119 11l8-5-9 2 1 3z" fill="#FE9C42"/><path d="M211 1l-15 1 1 5 1 4 1-1 1 2 11-11z" fill="url(#paint4_linear)"/><path d="M198 6l1 4 12-9-12 2-1 3z" fill="#FE9C42"/><path opacity=".2" d="M198 6l1 4 12-9-12 2-1 3z" fill="#000"/><path d="M197 2l14-1-13 5-1-4zM201 11l10-10-13 7 3 3z" fill="#FE9C42"/><path d="M171 29l-9-4-1 3v5l10-4z" fill="url(#paint5_linear)"/><path d="M161 28v3l10-2-8-2-2 1z" fill="#FE9C42"/><path opacity=".2" d="M161 28v3l10-2-8-2-2 1z" fill="#000"/><path d="M162 26l9 3-10-1 1-2zM162 32l9-3h-10l1 3z" fill="#FE9C42"/><g opacity=".5"><path opacity=".5" d="M116 63l-10-1 1 3v3l1-1v2l8-6z" fill="url(#paint6_linear)"/><path opacity=".5" d="M107 65v2l9-4h-8l-1 2z" fill="#FE9C42"/><path opacity=".2" d="M107 65v2l9-4h-8l-1 2z" fill="#000"/><path opacity=".5" d="M107 62l9 1-9 2v-3zM108 68l8-5-9 3 1 2z" fill="#FE9C42"/></g><g opacity=".2"><path opacity=".2" d="M223 19l-15 1 1 4 1 5 1-1 1 2 11-11z" fill="url(#paint7_linear)"/><path opacity=".2" d="M210 24l1 4 12-9-12 2-1 3z" fill="#FE9C42"/><path opacity=".2" d="M210 24l1 4 12-9-12 2-1 3z" fill="#000"/><path opacity=".2" d="M209 20l14-1-13 5-1-4zM213 29l10-10-13 6 3 4z" fill="#FE9C42"/></g><g opacity=".3"><path opacity=".3" d="M263 73l1-1-15 1 1 5 1 4 1-1 1 2 10-10z" fill="url(#paint8_linear)"/><path opacity=".3" d="M250 77l1 4 12-9-11 3-2 2z" fill="#FE9C42"/><path opacity=".2" d="M250 77l1 4 12-9-11 3-2 2z" fill="#000"/><path opacity=".3" d="M249 73l14-1-13 5-1-4zM253 82l10-10-12 7 2 3z" fill="#FE9C42"/></g><g opacity=".3"><path opacity=".3" d="M388 99l1-1v1-1 1h-15l1 5 1 4h1l1 1 10-10z" fill="url(#paint9_linear)"/><path opacity=".3" d="M375 104l1 4 12-9-11 2-2 3z" fill="#FE9C42"/><path opacity=".2" d="M375 104l1 4 12-9-11 2-2 3z" fill="#000"/><path opacity=".3" d="M374 99h14l-13 5-1-5zM378 109l10-10-12 6 2 4z" fill="#FE9C42"/></g><g opacity=".5"><path opacity=".5" d="M172 72l-9-4v3l-1 3h1v1l9-3z" fill="url(#paint10_linear)"/><path opacity=".5" d="M163 71v3l9-2-7-2-2 1z" fill="#FE9C42"/><path opacity=".2" d="M163 71v3l9-2-7-2-2 1z" fill="#000"/><path opacity=".5" d="M163 68l9 4-9-1v-3zM163 75l9-3h-9v3z" fill="#FE9C42"/></g><g opacity=".5"><path opacity=".5" d="M344 134l-9-3-1 3v3h1v1l9-4z" fill="url(#paint11_linear)"/><path opacity=".5" d="M335 134l-1 2 10-2-7-1-2 1z" fill="#FE9C42"/><path opacity=".2" d="M335 134l-1 2 10-2-7-1-2 1z" fill="#000"/><path opacity=".5" d="M335 131l9 3h-9v-3zM335 138l9-4-9 1v3z" fill="#FE9C42"/></g><g opacity=".5"><path opacity=".5" d="M333 68h1l-10-4v3l-1 3h1v2l9-4z" fill="url(#paint12_linear)"/><path opacity=".5" d="M324 67v3l9-2-7-2-2 1z" fill="#FE9C42"/><path opacity=".2" d="M324 67v3l9-2-7-2-2 1z" fill="#000"/><path opacity=".5" d="M325 65l8 3-9-1 1-2zM325 71l8-3h-9l1 3z" fill="#FE9C42"/></g><g opacity=".2"><path opacity=".2" d="M421 13l-9-4-1 3v3l1 1 9-3z" fill="url(#paint13_linear)"/><path opacity=".2" d="M411 12v3l10-2-8-2-2 1z" fill="#FE9C42"/><path opacity=".2" d="M411 12v3l10-2-8-2-2 1z" fill="#000"/><path opacity=".2" d="M412 9l9 4-10-1 1-3zM412 16l9-3h-10l1 3z" fill="#FE9C42"/></g><g opacity=".2"><path opacity=".2" d="M98 31v-1l-9-3-1 3v3h1v1l9-3z" fill="url(#paint14_linear)"/><path opacity=".2" d="M89 30l-1 3 10-3-7-1-2 1z" fill="#FE9C42"/><path opacity=".2" d="M89 30l-1 3 10-3-7-1-2 1z" fill="#000"/><path opacity=".2" d="M89 27l9 3h-9v-3zM89 34l9-4-9 1v3z" fill="#FE9C42"/></g><path d="M285 19h1-1l1-1-1 1-15-2 1 5v4h1l1 1 12-8z" fill="url(#paint15_linear)"/><path d="M271 21l1 5 13-7h-12l-2 2z" fill="#FE9C42"/><path opacity=".2" d="M271 21l1 5 13-7h-12l-2 2z" fill="#000"/><path d="M271 17l14 2-14 2v-4zM273 27l12-8-14 4 2 4z" fill="#FE9C42"/><path d="M320 96h2-1l-27-21-5 10-5 9h3l-1 5 34-3z" fill="url(#paint16_linear)"/><path d="M290 85l-4 9 34 2-23-13-7 2z" fill="#FE9C42"/><path opacity=".2" d="M290 85l-4 9 34 2-23-13-7 2z" fill="#000"/><path d="M295 76l25 20-30-11 5-9zM288 98l32-2-31-8-1 10z" fill="#FE9C42"/><path d="M435 178h3l-1-1-58-43-10 22-9 19 5 1-1 10 71-8z" fill="url(#paint17_linear)"/><path d="M371 157l-8 18 73 2-50-26-15 6z" fill="#FE9C42"/><path opacity=".2" d="M371 157l-8 18 73 2-50-26-15 6z" fill="#000"/><path d="M380 137l56 40-65-20 9-20zM367 184l68-7-66-15-2 22z" fill="#FE9C42"/><path d="M385 13l1-1-34-6v22l3-1 1 4 29-18z" fill="url(#paint18_linear)"/><path d="M353 18l1 9 31-14-27-1-5 6z" fill="#FE9C42"/><path opacity=".2" d="M353 18l1 9 31-14-27-1-5 6z" fill="#000"/><path d="M353 7l32 6-32 5V7zM357 30l28-17-32 7 4 10z" fill="#FE9C42"/><path d="M421 52l2-1h-1l-34-6v11l1 10 2-1 2 5 28-18z" fill="url(#paint19_linear)"/><path d="M389 56l1 9 31-14-26-1-6 6z" fill="#FE9C42"/><path opacity=".2" d="M389 56l1 9 31-14-26-1-6 6z" fill="#000"/><path d="M389 45l32 6-32 5V45zM393 69l28-18-31 8 3 10z" fill="#FE9C42"/><path d="M238 49l-15-2v5l1 4h1v2l13-9z" fill="url(#paint20_linear)"/><path d="M224 52v4l14-7h-12l-2 3z" fill="#FE9C42"/><path opacity=".2" d="M224 52v4l14-7h-12l-2 3z" fill="#000"/><path d="M223 47l15 2-14 3-1-5zM226 57l12-8-14 4 2 4z" fill="#FE9C42"/><path d="M329 42l-15-2v5l1 5 1-1v2l13-9z" fill="url(#paint21_linear)"/><path d="M315 45v4l14-7-12 1-2 2z" fill="#FE9C42"/><path opacity=".2" d="M315 45v4l14-7-12 1-2 2z" fill="#000"/><path d="M314 40l15 2-14 3-1-5z" fill="#FE9C42"/><path d="M317 50l11-8-13 4 2 4z" fill="#FE9C42"/></g><defs><linearGradient id="paint0_linear" x1="38.4" y1="100.1" x2="38.4" y2="19.2" gradientUnits="userSpaceOnUse"><stop stop-color="gray" stop-opacity=".3"/><stop offset=".5" stop-color="gray" stop-opacity=".1"/><stop offset="1" stop-color="gray" stop-opacity=".1"/></linearGradient><linearGradient id="paint1_linear" x1="38.7" y1="26.9" x2="59" y2="26.8" gradientUnits="userSpaceOnUse"><stop stop-color="#7E21F5"/><stop offset="1" stop-color="#FE9C42"/></linearGradient><linearGradient id="paint2_linear" x1="3878.9" y1="3332.2" x2="3871.8" y2="3224.3" gradientUnits="userSpaceOnUse"><stop stop-color="gray" stop-opacity=".3"/><stop offset=".5" stop-color="gray" stop-opacity=".1"/><stop offset="1" stop-color="gray" stop-opacity=".1"/></linearGradient><linearGradient id="paint3_linear" x1="4930.1" y1="3091.9" x2="4923" y2="2984.1" gradientUnits="userSpaceOnUse"><stop stop-color="gray" stop-opacity=".3"/><stop offset=".5" stop-color="gray" stop-opacity=".1"/><stop offset="1" stop-color="gray" stop-opacity=".1"/></linearGradient><linearGradient id="paint4_linear" x1="11005.8" y1="3011.5" x2="10946.5" y2="2764.7" gradientUnits="userSpaceOnUse"><stop stop-color="gray" stop-opacity=".3"/><stop offset=".5" stop-color="gray" stop-opacity=".1"/><stop offset="1" stop-color="gray" stop-opacity=".1"/></linearGradient><linearGradient id="paint5_linear" x1="5041.2" y1="4866" x2="5060.9" y2="4756.7" gradientUnits="userSpaceOnUse"><stop stop-color="gray" stop-opacity=".3"/><stop offset=".5" stop-color="gray" stop-opacity=".1"/><stop offset="1" stop-color="gray" stop-opacity=".1"/></linearGradient><linearGradient id="paint6_linear" x1="4668.2" y1="4012.6" x2="4661.1" y2="3904.9" gradientUnits="userSpaceOnUse"><stop stop-color="gray" stop-opacity=".3"/><stop offset=".5" stop-color="gray" stop-opacity=".1"/><stop offset="1" stop-color="gray" stop-opacity=".1"/></linearGradient><linearGradient id="paint7_linear" x1="11363.9" y1="3421.5" x2="11304.5" y2="3174.6" gradientUnits="userSpaceOnUse"><stop stop-color="gray" stop-opacity=".3"/><stop offset=".5" stop-color="gray" stop-opacity=".1"/><stop offset="1" stop-color="gray" stop-opacity=".1"/></linearGradient><linearGradient id="paint8_linear" x1="12585.8" y1="4629.6" x2="12526.4" y2="4382.6" gradientUnits="userSpaceOnUse"><stop stop-color="gray" stop-opacity=".3"/><stop offset=".5" stop-color="gray" stop-opacity=".1"/><stop offset="1" stop-color="gray" stop-opacity=".1"/></linearGradient><linearGradient id="paint9_linear" x1="16614.3" y1="4978.8" x2="16555" y2="4732" gradientUnits="userSpaceOnUse"><stop stop-color="gray" stop-opacity=".3"/><stop offset=".5" stop-color="gray" stop-opacity=".1"/><stop offset="1" stop-color="gray" stop-opacity=".1"/></linearGradient><linearGradient id="paint10_linear" x1="5115.9" y1="5572.7" x2="5135.7" y2="5463.4" gradientUnits="userSpaceOnUse"><stop stop-color="gray" stop-opacity=".3"/><stop offset=".5" stop-color="gray" stop-opacity=".1"/><stop offset="1" stop-color="gray" stop-opacity=".1"/></linearGradient><linearGradient id="paint11_linear" x1="9029.3" y1="6828.3" x2="9049" y2="6719" gradientUnits="userSpaceOnUse"><stop stop-color="gray" stop-opacity=".3"/><stop offset=".5" stop-color="gray" stop-opacity=".1"/><stop offset="1" stop-color="gray" stop-opacity=".1"/></linearGradient><linearGradient id="paint12_linear" x1="8732.2" y1="5718.6" x2="8751.9" y2="5609.4" gradientUnits="userSpaceOnUse"><stop stop-color="gray" stop-opacity=".3"/><stop offset=".5" stop-color="gray" stop-opacity=".1"/><stop offset="1" stop-color="gray" stop-opacity=".1"/></linearGradient><linearGradient id="paint13_linear" x1="10638.4" y1="4917" x2="10658.1" y2="4807.7" gradientUnits="userSpaceOnUse"><stop stop-color="gray" stop-opacity=".3"/><stop offset=".5" stop-color="gray" stop-opacity=".1"/><stop offset="1" stop-color="gray" stop-opacity=".1"/></linearGradient><linearGradient id="paint14_linear" x1="3417.5" y1="4799.5" x2="3437.2" y2="4690.2" gradientUnits="userSpaceOnUse"><stop stop-color="gray" stop-opacity=".3"/><stop offset=".5" stop-color="gray" stop-opacity=".1"/><stop offset="1" stop-color="gray" stop-opacity=".1"/></linearGradient><linearGradient id="paint15_linear" x1="12642.9" y1="5116.9" x2="12626.3" y2="4865.1" gradientUnits="userSpaceOnUse"><stop stop-color="gray" stop-opacity=".3"/><stop offset=".5" stop-color="gray" stop-opacity=".1"/><stop offset="1" stop-color="gray" stop-opacity=".1"/></linearGradient><linearGradient id="paint16_linear" x1="19101.5" y1="29918.5" x2="19691.8" y2="28766.5" gradientUnits="userSpaceOnUse"><stop stop-color="gray" stop-opacity=".3"/><stop offset=".5" stop-color="gray" stop-opacity=".1"/><stop offset="1" stop-color="gray" stop-opacity=".1"/></linearGradient><linearGradient id="paint17_linear" x1="50069.2" y1="77379.5" x2="52523.5" y2="72255.5" gradientUnits="userSpaceOnUse"><stop stop-color="gray" stop-opacity=".3"/><stop offset=".5" stop-color="gray" stop-opacity=".1"/><stop offset="1" stop-color="gray" stop-opacity=".1"/></linearGradient><linearGradient id="paint18_linear" x1="34430.8" y1="14035.4" x2="34417.5" y2="12700" gradientUnits="userSpaceOnUse"><stop stop-color="gray" stop-opacity=".3"/><stop offset=".5" stop-color="gray" stop-opacity=".1"/><stop offset="1" stop-color="gray" stop-opacity=".1"/></linearGradient><linearGradient id="paint19_linear" x1="37073.3" y1="16102.7" x2="37059.9" y2="14767.3" gradientUnits="userSpaceOnUse"><stop stop-color="gray" stop-opacity=".3"/><stop offset=".5" stop-color="gray" stop-opacity=".1"/><stop offset="1" stop-color="gray" stop-opacity=".1"/></linearGradient><linearGradient id="paint20_linear" x1="11068" y1="5874" x2="11051.5" y2="5622.2" gradientUnits="userSpaceOnUse"><stop stop-color="gray" stop-opacity=".3"/><stop offset=".5" stop-color="gray" stop-opacity=".1"/><stop offset="1" stop-color="gray" stop-opacity=".1"/></linearGradient><linearGradient id="paint21_linear" x1="14054.9" y1="5650.9" x2="14038.3" y2="5399.1" gradientUnits="userSpaceOnUse"><stop stop-color="gray" stop-opacity=".3"/><stop offset=".5" stop-color="gray" stop-opacity=".1"/><stop offset="1" stop-color="gray" stop-opacity=".1"/></linearGradient><filter id="filter0_d" x="0" y="0" width="441" height="308" filterUnits="userSpaceOnUse" color-interpolation-filters="sRGB"><feFlood flood-opacity="0" result="BackgroundImageFix"/><feColorMatrix in="SourceAlpha" values="0 0 0 0 0 0 0 0 0 0 0 0 0 0 0 0 0 0 127 0"/><feOffset dx="-2" dy="4"/><feGaussianBlur stdDeviation="2.5"/><feColorMatrix values="0 0 0 0 0 0 0 0 0 0 0 0 0 0 0 0 0 0 0.25 0"/><feBlend in2="BackgroundImageFix" result="effect1_dropShadow"/><feBlend in="SourceGraphic" in2="effect1_dropShadow" result="shape"/></filter></defs></svg>