<svg width="382" height="308" fill="none" xmlns="http://www.w3.org/2000/svg"><g filter="url(#filter0_d)"><g clip-path="url(#clip0)"><path d="M364 262H7v4h357v-4zM364 295H7v4h357v-4z" fill="#FE9C42"/><path d="M333 265s-5-8-7-26c-2-16-1-43 13-80 27-72-6-129-6-130l2-1c0 1 8 15 13 39 7 30 4 63-7 92-26 71-7 105-6 105l-2 1zM323 25a12 12 0 100-24 12 12 0 000 24z" fill="#27AE60"/><path d="M361 70a12 12 0 100-24 12 12 0 000 24zM335 99a12 12 0 100-24 12 12 0 000 24zM366 125a12 12 0 100-25 12 12 0 000 25zM325 164a12 12 0 100-25 12 12 0 000 25zM340 266s-12-30 25-52l-25 52zM325 265s-5-31-48-31l48 31z" fill="#27AE60"/><path d="M66 187a18 18 0 100-35 18 18 0 000 35z" fill="#A0616A"/><path d="M70 147H59l-8 7a42 42 0 00-6 16 20 20 0 003 15l2-4 5 1 7 1 3-1c3-2 1-6 4-8l2-2c4-2 6-5 7-9 1-3 3-10 1-12-1-2-7-3-9-4z" fill="#333"/><path d="M115 150a11 11 0 00-8 0c-5 2-13 8-13 18 1 13 5 23 5 23l-1 28-4 51s-21 17-13 22c8 4 22-21 22-21l11-29 4-28s7-30 0-43c0 0 8-17-3-21zM167 195s-8 31 18 39c26 9 61 24 61 24l4 7 10-13-2-11-17-4s-31-25-45-26l2-16h-31zM236 169l9 16s31 17 39 29c7 11 26 24 26 24l-8 20s-24-28-34-30c-10-3-54-39-54-39l22-20z" fill="#A0616A"/><path d="M154 116l-10 2-23 8a265 265 0 00-37 20l-4 5-1 4 1 15c1 4 4 9 8 12a13 13 0 008 2c6 1 12 1 17-1l9-5c12-8 28-8 42-13l4-3 1-3 5-14 4-9 2-10 1-9c0-4-1-5-5-4l-22 3z" fill="#7E21F5"/><path d="M102 150a11 11 0 00-8 0c-5 2-13 8-13 18 1 13 5 23 5 23l-1 28-4 51s-21 17-13 22c8 4 22-21 22-21l11-29 4-28s7-30 0-43c0 0 8-17-3-21z" fill="#A0616A"/><path d="M177 113s39-4 37 20-15 65-15 65l-33 2s-4-28 2-38l9-49z" fill="#333"/><path d="M204 121s10 6 15 18 21 36 21 36l-26 18-19-19 9-53zM250 256s-8 3-2 9l8 13s-1 11 6 11c7-1 10-16 9-21-2-5-4-30-4-30s-16 1-15 3c0 3 3 13-2 15zM302 248s-8 3-6 7l9 13s-2 13 5 15c8 1 12-16 11-19-2-4-2-17-2-17s1-14-4-14l-11 2s1 12-2 13z" fill="#333"/><path d="M61 269H49v22h12v-22z" fill="#27AE60"/></g></g><defs><clipPath id="clip0"><path fill="#fff" d="M7 1h372v298H7z"/></clipPath><filter id="filter0_d" x="0" y="0" width="381.5" height="308" filterUnits="userSpaceOnUse" color-interpolation-filters="sRGB"><feFlood flood-opacity="0" result="BackgroundImageFix"/><feColorMatrix in="SourceAlpha" values="0 0 0 0 0 0 0 0 0 0 0 0 0 0 0 0 0 0 127 0"/><feOffset dx="-2" dy="4"/><feGaussianBlur stdDeviation="2.5"/><feColorMatrix values="0 0 0 0 0 0 0 0 0 0 0 0 0 0 0 0 0 0 0.25 0"/><feBlend in2="BackgroundImageFix" result="effect1_dropShadow"/><feBlend in="SourceGraphic" in2="effect1_dropShadow" result="shape"/></filter></defs></svg>