<?xml version="1.0"?>
<svg width="504.4" height="504.4" xmlns="http://www.w3.org/2000/svg" xmlns:svg="http://www.w3.org/2000/svg">
 <g class="layer">
  <title>Layer 1</title>
  <g id="svg_1">
   <g id="svg_2">
    <path d="m377.6,0.2l-251.2,0c-69.6,0 -126.4,56.8 -126.4,126.4l0,251.6c0,69.2 56.8,126 126.4,126l251.6,0c69.6,0 126.4,-56.8 126.4,-126.4l0,-251.2c-0.4,-69.6 -57.2,-126.4 -126.8,-126.4zm-0.4,188.8c0,2.8 0,5.6 0,8.4c0,84 -64.8,180.8 -183.6,180.8c-36.4,0 -70.4,-10.4 -98.8,-28.4c5.2,0.4 10,0.8 15.2,0.8c30.4,0 58,-10 80,-27.2c-28.4,-0.4 -52,-18.8 -60.4,-44c4,0.8 8,1.2 12,1.2c6,0 12,-0.8 17.2,-2.4c-28.8,-6 -50.8,-31.6 -50.8,-62.4l0,-0.8c8,4.8 18.4,7.6 28.8,8c-17.2,-11.2 -28.8,-30.8 -28.8,-52.8c0,-11.6 3.2,-22.4 8.8,-32c32,38.4 79.2,63.6 132.8,66.4c-1.2,-4.8 -1.6,-9.6 -1.6,-14.4c0,-35.2 28.8,-63.6 64.4,-63.6c18.4,0 35.2,7.6 47.2,20c14.8,-2.8 28.4,-8 40.8,-15.6c-4.8,14.8 -15.2,27.2 -28.4,35.2c13.2,-1.6 25.6,-4.8 37.2,-10c-8.8,12.8 -19.6,24 -32,32.8z" fill="url(#svg_19)" id="svg_3"/>
   </g>
  </g>
  <g id="svg_4"/>
  <g id="svg_5"/>
  <g id="svg_6"/>
  <g id="svg_7"/>
  <g id="svg_8"/>
  <g id="svg_9"/>
  <g id="svg_10"/>
  <g id="svg_11"/>
  <g id="svg_12"/>
  <g id="svg_13"/>
  <g id="svg_14"/>
  <g id="svg_15"/>
  <g id="svg_16"/>
  <g id="svg_17"/>
  <g id="svg_18"/>
 </g>
 <defs>
  <linearGradient id="svg_19">
   <stop offset="0" stop-color="#fe9c42" stop-opacity="0.996094"/>
   <stop offset="1" stop-color="#7e21f5" stop-opacity="0.996094"/>
  </linearGradient>
 </defs>
</svg>