<?xml version="1.0" encoding="UTF-8"?>
<svg viewBox="0 0 504.4 504.4" xmlns="http://www.w3.org/2000/svg">
<g class="layer">
<title>Layer 1</title>
<path d="m377.6 0.2h-251.2c-69.6 0-126.4 56.8-126.4 126.4v251.6c0 69.2 56.8 126 126.4 126h251.6c69.6 0 126.4-56.8 126.4-126.4v-251.2c-0.4-69.6-57.2-126.4-126.8-126.4zm-0.4 188.8v8.4c0 84-64.8 180.8-183.6 180.8-36.4 0-70.4-10.4-98.8-28.4 5.2 0.4 10 0.8 15.2 0.8 30.4 0 58-10 80-27.2-28.4-0.4-52-18.8-60.4-44 4 0.8 8 1.2 12 1.2 6 0 12-0.8 17.2-2.4-28.8-6-50.8-31.6-50.8-62.4v-0.8c8 4.8 18.4 7.6 28.8 8-17.2-11.2-28.8-30.8-28.8-52.8 0-11.6 3.2-22.4 8.8-32 32 38.4 79.2 63.6 132.8 66.4-1.2-4.8-1.6-9.6-1.6-14.4 0-35.2 28.8-63.6 64.4-63.6 18.4 0 35.2 7.6 47.2 20 14.8-2.8 28.4-8 40.8-15.6-4.8 14.8-15.2 27.2-28.4 35.2 13.2-1.6 25.6-4.8 37.2-10-8.8 12.8-19.6 24-32 32.8z" fill="url(#a)"/>
</g>
<defs>
<linearGradient id="a">
<stop stop-color="#fe9c42" stop-opacity=".99609" offset="0"/>
<stop stop-color="#7e21f5" stop-opacity=".99609" offset="1"/>
</linearGradient>
</defs>
</svg>
