<svg xmlns="http://www.w3.org/2000/svg" viewBox="0 0 216.694 118.798" height="449" width="819"><defs><linearGradient id="b" x1="602.677" y1="415.974" x2="602.677" y2="61.496" gradientUnits="userSpaceOnUse"><stop stop-color="gray" stop-opacity=".25"/><stop offset=".54" stop-color="gray" stop-opacity=".12"/><stop offset="1" stop-color="gray" stop-opacity=".1"/></linearGradient><linearGradient id="c" x1="51727.5" y1="10974.4" x2="51727.5" y2="6588.4" gradientUnits="userSpaceOnUse"><stop stop-color="gray" stop-opacity=".25"/><stop offset=".54" stop-color="gray" stop-opacity=".12"/><stop offset="1" stop-color="gray" stop-opacity=".1"/></linearGradient><linearGradient id="d" x1="51727.5" y1="19246.4" x2="51727.5" y2="14861" gradientUnits="userSpaceOnUse"><stop stop-color="gray" stop-opacity=".25"/><stop offset=".54" stop-color="gray" stop-opacity=".12"/><stop offset="1" stop-color="gray" stop-opacity=".1"/></linearGradient><linearGradient id="e" x1="51727.5" y1="27873.699" x2="51727.5" y2="23421.801" gradientUnits="userSpaceOnUse"><stop stop-color="gray" stop-opacity=".25"/><stop offset=".54" stop-color="gray" stop-opacity=".12"/><stop offset="1" stop-color="gray" stop-opacity=".1"/></linearGradient><linearGradient id="f" x1="118165" y1="165814" x2="118165" y2="115099" gradientUnits="userSpaceOnUse"><stop stop-color="gray" stop-opacity=".25"/><stop offset=".54" stop-color="gray" stop-opacity=".12"/><stop offset="1" stop-color="gray" stop-opacity=".1"/></linearGradient><linearGradient id="g" x1="33607" y1="40964.898" x2="33607" y2="27348.5" gradientUnits="userSpaceOnUse"><stop stop-color="gray" stop-opacity=".25"/><stop offset=".54" stop-color="gray" stop-opacity=".12"/><stop offset="1" stop-color="gray" stop-opacity=".1"/></linearGradient><linearGradient id="h" x1="83926" y1="285551" x2="83926" y2="79649.102" gradientUnits="userSpaceOnUse"><stop stop-color="gray" stop-opacity=".25"/><stop offset=".54" stop-color="gray" stop-opacity=".12"/><stop offset="1" stop-color="gray" stop-opacity=".1"/></linearGradient><linearGradient id="i" x1="47308.801" y1="126986" x2="47308.801" y2="80314.203" gradientUnits="userSpaceOnUse"><stop stop-color="gray" stop-opacity=".25"/><stop offset=".54" stop-color="gray" stop-opacity=".12"/><stop offset="1" stop-color="gray" stop-opacity=".1"/></linearGradient><linearGradient id="j" x1="93944" y1="41773.5" x2="93944" y2="38869.699" gradientUnits="userSpaceOnUse"><stop stop-color="gray" stop-opacity=".25"/><stop offset=".54" stop-color="gray" stop-opacity=".12"/><stop offset="1" stop-color="gray" stop-opacity=".1"/></linearGradient><linearGradient id="k" x1="24487.801" y1="49245.898" x2="24487.801" y2="40014.602" gradientUnits="userSpaceOnUse"><stop stop-color="gray" stop-opacity=".25"/><stop offset=".54" stop-color="gray" stop-opacity=".12"/><stop offset="1" stop-color="gray" stop-opacity=".1"/></linearGradient><linearGradient id="l" x1="25717.1" y1="56081.5" x2="25717.1" y2="36433.801" gradientUnits="userSpaceOnUse"><stop stop-color="gray" stop-opacity=".25"/><stop offset=".54" stop-color="gray" stop-opacity=".12"/><stop offset="1" stop-color="gray" stop-opacity=".1"/></linearGradient><linearGradient id="m" x1="28807.4" y1="45872.301" x2="28807.4" y2="34552.398" gradientUnits="userSpaceOnUse"><stop stop-color="gray" stop-opacity=".25"/><stop offset=".54" stop-color="gray" stop-opacity=".12"/><stop offset="1" stop-color="gray" stop-opacity=".1"/></linearGradient><filter id="a" x="0" y="0" width="768.473" height="653" filterUnits="userSpaceOnUse" color-interpolation-filters="sRGB"><feFlood flood-opacity="0" result="BackgroundImageFix"/><feColorMatrix in="SourceAlpha" values="0 0 0 0 0 0 0 0 0 0 0 0 0 0 0 0 0 0 127 0"/><feOffset dx="2" dy="4"/><feGaussianBlur stdDeviation="2.5"/><feColorMatrix values="0 0 0 0 0 0 0 0 0 0 0 0 0 0 0 0 0 0 0.25 0"/><feBlend in2="BackgroundImageFix" result="effect1_dropShadow"/><feBlend in="SourceGraphic" in2="effect1_dropShadow" result="shape"/></filter></defs><g filter="url(#a)" transform="matrix(.18132 0 0 .18132 37.244 .252)" fill="none"><path opacity=".8" d="M761.473 61.496H443.872v354.478h317.601z" fill="url(#b)"/><path d="M755.883 297.376H449.325v109.951h306.558z" fill="#fff"/><path d="M486.596 324.398h-12.113v55.907h12.113z" fill="#fe9c42"/><path opacity=".7" d="M509.724 324.279h-11.902v56.407h11.902z" fill="#fe9c42"/><path opacity=".6" d="M533.214 324.279h-11.902v56.407h11.902z" fill="#fe9c42"/><path opacity=".5" d="M556.712 324.279h-11.901v56.407h11.901zM580.203 324.279h-11.901v56.407h11.901z" fill="#fe9c42"/><path opacity=".4" d="M603.701 324.279H591.8v56.407h11.901z" fill="#fe9c42"/><path opacity=".3" d="M627.191 324.279H615.29v56.407h11.901z" fill="#fe9c42"/><path d="M713.02 381.237c15.953 0 28.886-12.933 28.886-28.886s-12.933-28.885-28.886-28.885-28.885 12.932-28.885 28.885c0 15.953 12.932 28.886 28.885 28.886z" fill="#7e21f5"/><path d="M755.883 183.698H449.325v109.951h306.558z" fill="#fff"/><path d="M486.596 209.788h-12.113v56.839h12.113z" fill="#fe9c42"/><path opacity=".7" d="M509.724 209.902h-11.902v56.407h11.902z" fill="#fe9c42"/><path opacity=".6" d="M533.214 209.902h-11.902v56.407h11.902z" fill="#fe9c42"/><path opacity=".5" d="M556.712 209.902h-11.901v56.407h11.901zM580.203 209.902h-11.901v56.407h11.901z" fill="#fe9c42"/><path opacity=".4" d="M603.701 209.902H591.8v56.407h11.901z" fill="#fe9c42"/><path opacity=".3" d="M627.191 209.902H615.29v56.407h11.901z" fill="#fe9c42"/><path d="M713.02 266.627c15.953 0 28.886-12.933 28.886-28.886 0-15.952-12.933-28.885-28.886-28.885s-28.885 12.933-28.885 28.885c0 15.953 12.932 28.886 28.885 28.886z" fill="#7e21f5"/><path d="M755.883 69.088H449.325v110.883h306.558z" fill="#fff"/><path d="M486.596 95.178h-12.113v56.839h12.113z" fill="#fe9c42"/><path opacity=".7" d="M509.724 95.533h-11.902v56.408h11.902z" fill="#fe9c42"/><path opacity=".6" d="M533.214 95.533h-11.902v56.408h11.902z" fill="#fe9c42"/><path opacity=".5" d="M556.712 95.533h-11.901v56.408h11.901zM580.203 95.533h-11.901v56.408h11.901z" fill="#fe9c42"/><path opacity=".4" d="M603.701 95.533H591.8v56.408h11.901z" fill="#fe9c42"/><path opacity=".3" d="M627.191 95.533H615.29v56.408h11.901z" fill="#fe9c42"/><path d="M712.554 153.881c17.24 0 31.215-13.767 31.215-30.749s-13.975-30.749-31.215-30.749c-17.239 0-31.214 13.767-31.214 30.749s13.975 30.749 31.214 30.749z" fill="url(#c)"/><path d="M712.554 269.422c17.24 0 31.215-13.767 31.215-30.749s-13.975-30.749-31.215-30.749c-17.239 0-31.214 13.767-31.214 30.749s13.975 30.749 31.214 30.749z" fill="url(#d)"/><path d="M712.554 384.032c17.24 0 31.215-13.975 31.215-31.215 0-17.239-13.975-31.215-31.215-31.215-17.239 0-31.214 13.976-31.214 31.215 0 17.24 13.975 31.215 31.214 31.215z" fill="url(#e)"/><path d="M713.02 152.017c15.953 0 28.886-12.932 28.886-28.885 0-15.953-12.933-28.885-28.886-28.885s-28.885 12.932-28.885 28.885c0 15.953 12.932 28.885 28.885 28.885z" fill="#7e21f5"/><path d="M354.283 466.188a58.793 58.793 0 00-15.365-39.625 59.013 59.013 0 00-38.089-18.978 59.059 59.059 0 00-40.966 11.559 58.848 58.848 0 00-22.495 36.073l-181.256-4.905 1.988 31.085s-25.84 59.519 109.987 75.395v60.186h157.039V516.946a58.883 58.883 0 0021.349-21.505 58.736 58.736 0 007.808-29.253z" fill="url(#f)"/><path d="M64.541 482.658s-24.701 56.917 105.15 72.104v57.557h150.116V459.907l-257.173-6.923z" fill="#fda57d"/><path d="M139.481 244.342a27.734 27.734 0 01-17.278 12.271 27.618 27.618 0 01-20.862-3.543l-80.778-53.487a27.864 27.864 0 01-12.212-17.362 27.983 27.983 0 013.526-20.963 27.74 27.74 0 0117.278-12.272 27.622 27.622 0 0120.862 3.543l80.778 53.487a27.868 27.868 0 0112.212 17.362 27.982 27.982 0 01-3.526 20.964z" fill="url(#g)"/><path d="M135.109 241.516a25.85 25.85 0 01-16.1 11.42 25.744 25.744 0 01-19.432-3.304l-75.25-49.85a25.96 25.96 0 01-11.366-16.175 26.067 26.067 0 013.289-19.523 25.844 25.844 0 0116.1-11.42 25.739 25.739 0 0119.431 3.304l75.25 49.849a25.964 25.964 0 0111.367 16.176 26.07 26.07 0 01-3.289 19.523zM291.387 523.8c31.134 0 56.373-25.239 56.373-56.373 0-31.134-25.239-56.373-56.373-56.373-31.134 0-56.373 25.239-56.373 56.373 0 31.134 25.239 56.373 56.373 56.373z" fill="#fda57d"/><path d="M281.108 95.178H64.993c-4.905 0-8.881 3.985-8.881 8.9v405.231c0 4.915 3.976 8.9 8.881 8.9h216.115c4.905 0 8.882-3.985 8.882-8.9V104.078c0-4.915-3.977-8.9-8.882-8.9z" fill="url(#h)"/><path d="M275.326 100.769H70.776c-6.555 0-11.869 5.311-11.869 11.862v388.125c0 6.552 5.314 11.862 11.868 11.862h204.551c6.555 0 11.869-5.31 11.869-11.862V112.631c0-6.551-5.314-11.862-11.869-11.862z" fill="#fff"/><path d="M197.1 116.61h-47.167c-.87 0-1.575.625-1.575 1.397s.705 1.398 1.575 1.398H197.1c.87 0 1.575-.626 1.575-1.398 0-.772-.705-1.397-1.575-1.397zM209.856 119.405a1.864 1.864 0 100-3.728 1.864 1.864 0 000 3.728z" fill="#dbdbdb"/><path d="M328.371 477.379c-16.436 3.784-27.725-6.892-31.531-23.281l-37.759-139.785a30.57 30.57 0 013.897-23.06 30.759 30.759 0 0119.08-13.613 30.852 30.852 0 0123.142 3.907 30.664 30.664 0 0113.642 19.034l30.825 143.37c3.807 16.345-4.86 29.643-21.296 33.428z" fill="url(#i)"/><path d="M314.274 304.285c-3.194-13.826-16.993-22.445-30.819-19.251-13.827 3.195-22.446 16.994-19.251 30.82l34.623 149.849c3.194 13.826 16.993 22.445 30.819 19.251 13.827-3.195 22.446-16.994 19.251-30.82z" fill="#fda57d"/><path d="M347.761 593.684H132.518V644h215.243z" fill="url(#j)"/><path d="M342.17 599.274H139.041v39.135H342.17z" fill="#7e21f5"/><path d="M107.874 393.686a27.243 27.243 0 01-16.97 12.029 27.147 27.147 0 01-20.48-3.482L16.59 367.256a27.347 27.347 0 01-11.98-17.039 27.442 27.442 0 013.468-20.564 27.238 27.238 0 0116.97-12.029 27.138 27.138 0 0120.48 3.482l53.835 34.976a27.344 27.344 0 0111.979 17.039 27.444 27.444 0 01-3.467 20.565z" fill="url(#k)"/><path opacity=".5" d="M173.189 371.91c36.063 0 65.297-29.234 65.297-65.296 0-36.062-29.234-65.297-65.297-65.297-36.062 0-65.296 29.235-65.296 65.297s29.234 65.296 65.296 65.296z" fill="url(#l)"/><path d="M173.517 368.192c33.964 0 61.498-27.534 61.498-61.498s-27.534-61.498-61.498-61.498c-33.965 0-61.498 27.534-61.498 61.498s27.533 61.498 61.498 61.498z" fill="#7e21f5"/><path d="M146.726 298.125l22.922 21.077 32.47-47.916 11.465 9.581-43.935 57.507-32.471-36.42z" fill="#fff"/><path d="M105.293 392.487a25.827 25.827 0 01-16.091 11.399 25.756 25.756 0 01-19.421-3.298l-51.05-33.171A25.916 25.916 0 017.37 351.271a25.99 25.99 0 013.287-19.487 25.835 25.835 0 0116.116-11.406 25.76 25.76 0 0119.44 3.331l51.05 33.171a25.917 25.917 0 0111.323 16.145 25.988 25.988 0 01-3.293 19.462z" fill="#fda57d"/><path d="M121.821 320.085a27.423 27.423 0 01-17.086 12.019 27.517 27.517 0 01-20.625-3.478l-68.36-44.352a27.316 27.316 0 01-12.067-17.018 27.22 27.22 0 013.492-20.542 27.416 27.416 0 0117.086-12.019 27.512 27.512 0 0120.624 3.478l68.361 44.351a27.316 27.316 0 0112.067 17.018 27.224 27.224 0 01-3.492 20.543z" fill="url(#m)"/><path d="M118.343 318.012a25.762 25.762 0 01-35.424 8.055L18.7 284.228a25.774 25.774 0 01-8.053-35.434 25.762 25.762 0 0135.442-8.055l64.218 41.839a25.775 25.775 0 018.036 35.434z" fill="#fda57d"/><path d="M182.834 79.338V2h343.829v46.403M385.964 509.823h148.153v-78.27" stroke="#333" stroke-width="2" stroke-miterlimit="10" stroke-dasharray="12, 12"/></g></svg>