<svg xmlns="http://www.w3.org/2000/svg" viewBox="0 0 216.694 118.798" height="449" width="819"><defs><clipPath id="a"><path fill="#fff" d="M7 1h791.237v658.517H7z"/></clipPath><filter id="b" x="0" y="0" width="801.237" height="668.517" filterUnits="userSpaceOnUse" color-interpolation-filters="sRGB"><feFlood flood-opacity="0" result="BackgroundImageFix"/><feColorMatrix in="SourceAlpha" values="0 0 0 0 0 0 0 0 0 0 0 0 0 0 0 0 0 0 127 0"/><feOffset dx="-2" dy="4"/><feGaussianBlur stdDeviation="2.5"/><feColorMatrix values="0 0 0 0 0 0 0 0 0 0 0 0 0 0 0 0 0 0 0.25 0"/><feBlend in2="BackgroundImageFix" result="effect1_dropShadow"/><feBlend in="SourceGraphic" in2="effect1_dropShadow" result="shape"/></filter></defs><g clip-path="url(#a)" filter="url(#b)" transform="matrix(.1791 0 0 .1791 35.084 .431)" fill="none"><path fill-opacity=".5" fill="#333" d="M380.175 627.084a4.772 4.772 0 00-2.816.991c-2.401-6.344-6.117-10.421-10.292-10.421s-7.891 4.077-10.291 10.421a4.777 4.777 0 00-2.817-.991c-4.743 0-8.587 8.021-8.587 17.916h43.391c0-9.895-3.845-17.916-8.588-17.916zM273.175 627.084a4.772 4.772 0 00-2.816.991c-2.401-6.344-6.117-10.421-10.292-10.421s-7.891 4.077-10.291 10.421a4.777 4.777 0 00-2.817-.991c-4.743 0-8.587 8.021-8.587 17.916h43.391c0-9.895-3.845-17.916-8.588-17.916zM689.175 627.084a4.772 4.772 0 00-2.816.991c-2.401-6.344-6.117-10.421-10.292-10.421s-7.891 4.077-10.291 10.421a4.777 4.777 0 00-2.817-.991c-4.743 0-8.587 8.021-8.587 17.916h43.391c0-9.895-3.845-17.916-8.588-17.916z"/><path fill="#3f3d56" d="M785 643.258H204v2h581z"/><path fill="#3f3d56" d="M378.763 645h-61.391v-1c0-14.312 5.602-25.522 12.754-25.522a7.094 7.094 0 013.364.872c3.585-8.776 8.857-13.779 14.577-13.779 5.72 0 10.992 5.003 14.577 13.779a7.094 7.094 0 013.364-.872c7.152 0 12.755 11.21 12.755 25.522zm-59.381-2h57.37c-.249-12.309-5.067-22.522-10.744-22.522a5.547 5.547 0 00-3.268 1.166l-1.059.767-.463-1.223c-3.275-8.654-8.068-13.617-13.151-13.617s-9.876 4.963-13.151 13.617l-.462 1.223-1.059-.767a5.553 5.553 0 00-3.269-1.166c-5.676 0-10.495 10.213-10.744 22.522zM736.763 645h-61.392v-1c0-14.312 5.603-25.522 12.755-25.522a7.094 7.094 0 013.364.872c3.585-8.776 8.858-13.779 14.577-13.779 5.719 0 10.992 5.003 14.577 13.779a7.094 7.094 0 013.364-.872c7.152 0 12.755 11.21 12.755 25.522zm-59.382-2h57.372c-.249-12.309-5.068-22.522-10.745-22.522a5.547 5.547 0 00-3.268 1.166l-1.059.767-.463-1.223c-3.275-8.654-8.069-13.617-13.151-13.617-5.083 0-9.877 4.963-13.151 13.617l-.463 1.223-1.059-.767a5.547 5.547 0 00-3.268-1.166c-5.677 0-10.496 10.213-10.745 22.522zM279.763 645h-61.391v-1c0-14.312 5.602-25.522 12.754-25.522a7.094 7.094 0 013.364.872c3.585-8.776 8.857-13.779 14.577-13.779 5.72 0 10.992 5.003 14.577 13.779a7.094 7.094 0 013.364-.872c7.152 0 12.755 11.21 12.755 25.522zm-59.381-2h57.371c-.249-12.309-5.068-22.522-10.745-22.522a5.547 5.547 0 00-3.268 1.166l-1.059.767-.463-1.223c-3.275-8.654-8.068-13.617-13.151-13.617s-9.876 4.963-13.151 13.617l-.462 1.223-1.059-.767a5.55 5.55 0 00-3.269-1.166c-5.676 0-10.495 10.213-10.744 22.522zM505.831 284.727c.188-.298-.302-.947-1.096-1.45-.794-.502-1.591-.669-1.779-.371-.189.298.302.947 1.096 1.449.794.503 1.59.669 1.779.372z"/><path fill="#6c63ff" d="M503.044 279.187a2.975 2.975 0 014.109-.923l37.735 23.896a2.975 2.975 0 01.922 4.108z"/><path fill="#3f3d56" d="M499.476 280.451l1.187-1.875a2.036 2.036 0 012.808-.631l42.964 27.208a2.409 2.409 0 01.747 3.325l-.987 1.558z"/><path fill="#d0cde1" d="M505.873 281.48l-.456.719 2.876 1.821.455-.719zM509.826 283.984l-.455.718 2.875 1.821.455-.719z"/><path fill="#ffb8b8" d="M566.773 196.667c14.813 0 26.821-12.008 26.821-26.821 0-14.813-12.008-26.821-26.821-26.821-14.813 0-26.821 12.008-26.821 26.821 0 14.813 12.008 26.821 26.821 26.821z"/><path fill="#ffb8b8" d="M568.409 188.817s13.083 20.606 9.812 26.494c-3.271 5.887-13.41 21.914-13.41 21.914s45.137-33.362 39.25-40.558c0 0-13.411-11.448-14.065-18.644zM589.342 582.607l1.308 20.607 20.934-3.598-1.309-19.952zM496.123 594.074l-3.925 13.083 23.223 4.252 3.271-12.102z"/><path fill="#333" d="M591.468 305.095l2.126 14.555s26.821 53.315-2.29 79.482l-39.25 96.817s-4.252 50.371-16.681 68.033l-11.448 40.232-34.017-8.832 27.475-87.331s-.327-36.634 3.598-44.811l17.336-77.846 3.107-83.243s45.792-3.27 50.044 2.944z"/><path fill="#333" d="M586.398 395.842l14.719 99.434s7.85 38.269 8.504 52.987c.654 14.719 3.271 33.69 3.271 33.69l-26.494 4.252-26.167-128.217z"/><path fill="#333" d="M615.509 589.149l-20.934 1.308s-7.793-8.831-7.331-4.252c.462 4.579-4.444 23.877-4.444 23.877l-16.354 17.009s-32.381 0-27.475 15.7c4.906 15.7 43.175 2.616 43.175 2.616l14.719-4.906v6.542s25.185 3.598 25.839-2.944c.655-6.542 0-14.719-.981-15.373-.981-.654-6.214-39.577-6.214-39.577zM518.763 605.294s-14.963-1.197-17.058-2.992c-2.095-1.796-5.387-9.277-9.876-4.489-4.489 4.788-20.649 20.35-20.649 20.35l-15.562 7.481s-20.349-5.387-27.233 7.182c-6.883 12.57 33.817 25.737 44.291 21.547l13.168-2.693-.599 6.285s18.555 4.189 21.248-1.197c2.693-5.387 4.788-11.672 3.591-13.467-1.197-1.796 8.679-38.007 8.679-38.007z"/><path fill="#fe9c42" d="M629.246 230.029l-23.17 51.264-10.062 22.255-3.728 8.252-53.969-.654 5.56-37.614c-7.85-20.28 10.794-28.457 10.794-28.457l15.7-16.73v2.666s15.373-18.317 22.242-28.784c6.868-10.466 16.354-6.541 16.354-6.541 16.354-1.636 20.279 34.343 20.279 34.343z"/><path fill="#000" d="M606.076 281.293l-10.062 22.255c-3.231-6.044-5.691-12.89-5.691-16.933 0-11.121 11.121-5.233 11.121-5.233s-8.995-49.227-8.995-63.945c0-9.777 8.151 33.611 13.627 63.856z" opacity=".2"/><path fill="#ffb8b8" d="M597.192 284.979l-48.736-.981s-35.652 2.944-30.418 17.336c5.233 14.391 33.689 0 33.689 0l56.913 8.831z"/><path fill="#fe9c42" d="M606.35 198.302s-17.008 1.309-17.008 16.027c0 14.719 15.373 67.053 15.373 67.053s-11.121-5.888-11.121 5.233c0 11.121 18.644 43.502 20.606 21.915 0 0 28.13 13.737 26.494-12.103-1.635-25.839-19.298-80.462-19.298-80.462s-1.962-18.644-15.046-17.663z"/><path fill="#2f2e41" d="M567.665 166.929c-1.878-1.818-1.843-4.884-3.357-7.015-2.377-3.346-7.326-3.121-11.389-2.544a31.379 31.379 0 00-7.949 1.847 7.843 7.843 0 00-4.598 5.265c-.318 1.318-1.02-2.421-1.734-7.265a23.594 23.594 0 0112.913-24.62l.159-.077c4.596-2.234 9.411-4.207 14.491-4.761 5.08-.554 10.501.449 14.485 3.649 1.821 1.463 3.302 3.34 5.255 4.622 3.43 2.253 7.774 2.362 11.85 2.837A32.933 32.933 0 01611 142.919a17.848 17.848 0 018.383 10.662c1.291 5.258-.815 11.473-5.984 13.754a6.238 6.238 0 00-2.337 1.714c-4.244 5.189 2.608 8.028 3.602 12.545.829 3.769-2.795 7.181-6.512 8.219a15.534 15.534 0 01-17.826-8.517c-1.275-2.956-1.565-6.227-1.912-9.428-.397-3.664-10.007-10.3-3.519-5.308a9.058 9.058 0 012.878 3.64c1.973 4.724-2.123 7.406-4.32 10.779a11.998 11.998 0 00-.068 12.688 13.83 13.83 0 01-6.358-16.464c.589-1.603 1.482-3.085 2.017-4.707.835-2.531.097-7.449-3.638-6.452-2.666.712-4.945 3.59-7.741.885z"/><path fill="#fe9c42" d="M786.237 511.398c6.628 0 12-5.372 12-12 0-6.627-5.372-12-12-12-6.627 0-12 5.373-12 12 0 6.628 5.373 12 12 12zM756.237 558.398c11.046 0 20-8.954 20-20 0-11.045-8.954-20-20-20s-20 8.955-20 20c0 11.046 8.954 20 20 20z"/><path fill="#3f3d56" d="M762.639 550.398h-2v93h2z"/><path fill="#3f3d56" d="M762.237 552.398a20.998 20.998 0 01-14.849-35.849 20.998 20.998 0 0135.849 14.849 21.024 21.024 0 01-21 21zm0-40a19.007 19.007 0 00-17.554 11.729 19.002 19.002 0 0013.847 25.906 19.002 19.002 0 0022.707-18.635 19.021 19.021 0 00-19-19z"/><path fill="#3f3d56" d="M779.237 516.398a12.995 12.995 0 01-12.01-8.025 12.996 12.996 0 012.818-14.167 13.002 13.002 0 0120.001 1.97 12.995 12.995 0 012.191 7.222 13.015 13.015 0 01-13 13zm0-24a10.998 10.998 0 00-7.778 18.778 11.002 11.002 0 0018.778-7.778 11.01 11.01 0 00-11-11z"/><path fill="#fff" d="M446.951 300.211L410.98 265H247.763V164h214v101h-15.158zM249.763 263h162.033l33.108 32.408-.319-32.408h15.178v-97h-210zM59.573 137.21L59.92 102H44.763V1h214v101H95.546zM46.763 100H61.94l-.319 32.408L94.73 100h162.033V3h-210z"/><path fill="#333" d="M211.763 33h-128v2h128zM296.881 238.113l-17.786-17.786a13.08 13.08 0 018.523-22.305c3.379-.187 6.7.943 9.263 3.154a13.077 13.077 0 0117.787 19.151zm-8.539-38.105a11.07 11.07 0 00-10.866 13.234 11.074 11.074 0 003.033 5.671l16.372 16.372 16.373-16.372a11.076 11.076 0 00-7.834-18.907 11.076 11.076 0 00-7.832 3.241l-.707.707-.707-.707a11.05 11.05 0 00-7.832-3.239z"/><path fill="#fe9c42" d="M358.882 209.014a2.931 2.931 0 00-2.067-.858 2.924 2.924 0 00-2.066 4.99l4.133 4.132 4.132-4.132a2.907 2.907 0 00.857-2.067 2.915 2.915 0 00-.855-2.067 2.919 2.919 0 00-2.068-.856 2.916 2.916 0 00-2.066.858zM341.882 209.014a2.931 2.931 0 00-2.067-.858 2.924 2.924 0 00-2.066 4.99l4.133 4.132 4.132-4.132a2.907 2.907 0 00.857-2.067 2.915 2.915 0 00-.855-2.067 2.919 2.919 0 00-2.068-.856 2.916 2.916 0 00-2.066.858z"/><path fill="#333" d="M350.763 240a21.998 21.998 0 01-20.326-13.581A22 22 0 11372.763 218a22.027 22.027 0 01-22 22zm0-42a19.998 19.998 0 00-14.142 34.142A20 20 0 00370.763 218a20.02 20.02 0 00-5.865-14.135A20.02 20.02 0 00350.763 198zM404.763 240a21.998 21.998 0 01-20.326-13.581A22 22 0 11426.763 218a22.027 22.027 0 01-22 22zm0-42a19.998 19.998 0 00-14.142 34.142A20 20 0 00424.763 218a20.02 20.02 0 00-5.865-14.135A20.02 20.02 0 00404.763 198z"/><path fill="#333" d="M413.763 216a5 5 0 10-.001-10.001 5 5 0 00.001 10.001zM396.763 216a5 5 0 10-.001-10.001 5 5 0 00.001 10.001zM398.53 222c-2.041 14.115 14.15 16.978 12.53-.001.096-.011-11.878.01-12.53.001zM343.058 224.929c4.573 6.148 12.479 6.7 16.705 0zM212 48.258H84v2h128zM212 62.258H84v2h128zM114 136.258H7v2h107zM496 299.258H389v2h107z"/></g></svg>