<svg width="778" height="543" fill="none" xmlns="http://www.w3.org/2000/svg"><g filter="url(#filter0_d)"><g clip-path="url(#clip0)"><path d="M152.7 115.422c24.225 0 43.863-19.632 43.863-43.85s-19.638-43.85-43.863-43.85c-24.224 0-43.862 19.632-43.862 43.85s19.638 43.85 43.862 43.85z" fill="#F2C94C"/><path d="M366.108 236.095c0 103.467-61.527 139.594-137.424 139.594S91.261 339.562 91.261 236.095C91.26 132.627 228.684 1 228.684 1s137.424 131.627 137.424 235.095z" fill="#27AE60"/><path d="M223.678 359.862l1.408-86.593 58.573-107.128-58.353 93.544.633-38.936 40.369-77.506-40.202 67.203 1.138-70.028 43.228-61.705-43.049 50.693L228.134 1l-4.468 169.986.367-7.012-43.95-67.254 43.245 80.715-4.095 78.209-.121-2.075-50.667-70.775 50.513 78.108-.512 9.781-.092.147.042.803-10.389 198.423h13.881l1.665-102.49 50.389-77.917-50.264 70.213z" fill="#333"/><path d="M775 278.472c0 84.693-50.362 114.265-112.488 114.265-62.125 0-112.488-29.572-112.488-114.265S662.512 86.036 662.512 86.036 775 193.779 775 278.472z" fill="#27AE60"/><path d="M658.415 379.781l1.151-70.88 47.945-87.689-47.764 76.57.518-31.871 33.044-63.443-32.907 55.009.932-57.321 35.383-50.508-35.237 41.495.582-105.107-3.658 139.142.301-5.74-35.975-55.051 35.398 66.07-3.352 64.017-.1-1.699-41.473-57.933 41.348 63.936-.42 8.006-.074.121.034.657-8.505 162.418h11.363l1.363-83.892 41.246-63.779-41.143 57.472z" fill="#333"/><path d="M387.091 486.448c209.918 0 380.091-8.6 380.091-19.208 0-10.609-170.173-19.208-380.091-19.208C177.172 448.032 7 456.631 7 467.24c0 10.608 170.172 19.208 380.091 19.208zM618.639 502.265c35.954 0 65.1-1.473 65.1-3.29s-29.146-3.29-65.1-3.29c-35.954 0-65.101 1.473-65.101 3.29s29.147 3.29 65.101 3.29zM383.066 534c35.954 0 65.101-1.473 65.101-3.29s-29.147-3.29-65.101-3.29-65.101 1.473-65.101 3.29 29.147 3.29 65.101 3.29zM204.343 511.618c82.142 0 148.731-3.365 148.731-7.516 0-4.152-66.589-7.517-148.731-7.517s-148.73 3.365-148.73 7.517c0 4.151 66.588 7.516 148.73 7.516zM73.537 443.116c29.902 0 54.142-24.234 54.142-54.128s-24.24-54.128-54.142-54.128c-29.903 0-54.143 24.234-54.143 54.128s24.24 54.128 54.143 54.128z" fill="#333"/><path d="M64.812 431.368l-16.447-.194-.347 29.46 16.447.194.347-29.46z" fill="#333"/><path d="M97.707 431.756l-16.447-.194-.348 29.46 16.448.194.347-29.46z" fill="#2F2E41"/><path d="M75.426 461.3c.033-2.838-6.076-5.211-13.646-5.3-7.57-.089-13.733 2.139-13.766 4.977-.034 2.838 6.075 5.211 13.645 5.3 7.57.089 13.733-2.139 13.767-4.977z" fill="#333"/><path d="M108.328 461.002c.034-2.838-6.075-5.21-13.645-5.3-7.57-.089-13.733 2.139-13.767 4.977-.033 2.838 6.076 5.211 13.646 5.3 7.569.089 13.733-2.139 13.766-4.977z" fill="#2F2E41"/><path d="M75.069 393.801c10.22 0 18.504-8.282 18.504-18.499 0-10.217-8.284-18.5-18.504-18.5s-18.505 8.283-18.505 18.5 8.285 18.499 18.505 18.499z" fill="#fff"/><path d="M75.069 381.468a6.167 6.167 0 10-6.169-6.166 6.167 6.167 0 006.169 6.166z" fill="#3F3D56"/><path d="M21.613 338.035c-4.14-19.623 10.066-39.236 31.732-43.805 21.666-4.569 42.587 7.635 46.728 27.258 4.14 19.624-10.266 26.674-31.932 31.243-21.666 4.569-42.387 4.928-46.528-14.696z" fill="#7E21F5"/><path d="M156.127 419.184c0 37.736-22.438 50.913-50.12 50.913-.641 0-1.281-.008-1.92-.022a80.447 80.447 0 01-3.808-.174c-24.982-1.767-44.391-15.621-44.391-50.717 0-36.319 46.425-82.148 49.912-85.54l.006-.006.201-.195s50.12 48.005 50.12 85.741z" fill="#27AE60"/><path d="M104.181 464.324l18.332-25.608-18.377 28.419-.049 2.94a80.447 80.447 0 01-3.808-.174l1.976-37.754-.016-.293.034-.055.186-3.566-18.423-28.489 18.481 25.815.043.757 1.493-28.526-15.772-29.438 15.965 24.432 1.554-59.14.006-.201v.195l-.26 46.635 15.702-18.488-15.766 22.506-.415 25.54 14.661-24.512-14.722 28.27-.232 14.198 21.284-34.115-21.364 39.07-.513 31.582zM495.303 442.53c29.902 0 54.143-24.234 54.143-54.128s-24.241-54.128-54.143-54.128-54.143 24.234-54.143 54.128 24.241 54.128 54.143 54.128z" fill="#333"/><path d="M499.924 431.423l-15.723 4.831 8.658 28.162 15.722-4.83-8.657-28.163zM531.369 421.765l-15.723 4.831 8.657 28.162 15.723-4.83-8.657-28.163z" fill="#2F2E41"/><path d="M507.572 465.63c7.236-2.223 12.426-6.225 11.592-8.937-.834-2.713-7.376-3.11-14.612-.887s-12.426 6.225-11.593 8.938c.834 2.712 7.377 3.109 14.613.886zM538.816 455.314c7.236-2.223 12.426-6.225 11.592-8.938-.834-2.712-7.376-3.109-14.612-.886-7.237 2.223-12.427 6.225-11.593 8.937.834 2.713 7.376 3.11 14.613.887z" fill="#2F2E41"/><path d="M492.587 393.4c10.219 0 18.504-8.282 18.504-18.499 0-10.217-8.285-18.499-18.504-18.499-10.22 0-18.505 8.282-18.505 18.499 0 10.217 8.285 18.499 18.505 18.499z" fill="#fff"/><path d="M492.587 381.068a6.167 6.167 0 100-12.333 6.167 6.167 0 100 12.333z" fill="#333"/><path d="M430.308 355.71c-9.93-17.426-2.383-40.435 16.856-51.393 19.24-10.958 42.887-5.715 52.817 11.711 9.931 17.426-1.638 28.533-20.878 39.49-19.24 10.958-38.864 17.618-48.795.192z" fill="#FE9C42"/><path d="M398.742 412.274c0 34.64-20.597 46.735-46.008 46.735a76.864 76.864 0 01-5.258-.179c-22.933-1.623-40.749-14.34-40.749-46.556 0-33.339 42.615-75.408 45.817-78.522l.005-.005.185-.18s46.008 44.067 46.008 78.707z" fill="#27AE60"/><path d="M351.058 453.71l16.827-23.506-16.869 26.087-.045 2.699a76.975 76.975 0 01-3.496-.16l1.814-34.657-.014-.269.031-.05.171-3.273-16.911-26.152 16.964 23.697.039.695 1.371-26.186-14.478-27.023 14.655 22.428 1.427-54.288.005-.185v.18l-.238 42.809 14.414-16.972-14.473 20.659-.381 23.445 13.458-22.5-13.514 25.95-.213 13.033 19.537-31.316-19.61 35.865-.471 28.99z" fill="#333"/><path d="M579.675 426.721c0 37.736-22.439 50.912-50.12 50.912a83.273 83.273 0 01-5.729-.195c-24.982-1.768-44.391-15.621-44.391-50.717 0-36.319 46.425-82.148 49.912-85.54l.006-.006.202-.195s50.12 48.005 50.12 85.741z" fill="#27AE60"/><path d="M527.729 471.86l18.331-25.607-18.377 28.419-.049 2.94a83.273 83.273 0 01-3.808-.174l1.976-37.754-.015-.294.033-.054.187-3.566-18.423-28.489 18.481 25.815.042.757 1.494-28.526-15.773-29.438 15.965 24.431 1.554-59.139.006-.201v.195l-.259 46.635 15.702-18.488-15.766 22.506-.416 25.539 14.661-24.511-14.722 28.269-.232 14.199 21.284-34.115-21.363 39.07-.513 31.581zM498.742 420.805c2.011-4.24-7.31-12.869-20.818-19.274-13.509-6.406-26.091-8.161-28.102-3.922-2.011 4.24 7.309 12.869 20.818 19.275 13.509 6.405 26.09 8.16 28.102 3.921zM82.03 415.85c1.747-4.355-8.088-12.394-21.965-17.955-13.878-5.561-26.544-6.538-28.29-2.183-1.747 4.356 8.088 12.395 21.966 17.956 13.878 5.561 26.544 6.538 28.29 2.182z" fill="#333"/></g></g><defs><clipPath id="clip0"><path fill="#fff" d="M7 1h768v533H7z"/></clipPath><filter id="filter0_d" x="0" y="0" width="778" height="543" filterUnits="userSpaceOnUse" color-interpolation-filters="sRGB"><feFlood flood-opacity="0" result="BackgroundImageFix"/><feColorMatrix in="SourceAlpha" values="0 0 0 0 0 0 0 0 0 0 0 0 0 0 0 0 0 0 127 0"/><feOffset dx="-2" dy="4"/><feGaussianBlur stdDeviation="2.5"/><feColorMatrix values="0 0 0 0 0 0 0 0 0 0 0 0 0 0 0 0 0 0 0.25 0"/><feBlend in2="BackgroundImageFix" result="effect1_dropShadow"/><feBlend in="SourceGraphic" in2="effect1_dropShadow" result="shape"/></filter></defs></svg>