<svg width="819" height="449" fill="none" xmlns="http://www.w3.org/2000/svg"><g filter="url(#filter0_d)"><path d="M774.834 164.679C751.4 117.361 705.54 76.995 650.139 70.416c-14.648-1.74-29.942-1.041-43.532 4.347-17.841 7.074-30.988 21.352-44.277 34.523-28.136 27.879-59.621 52.637-93.832 73.785-16.885 10.435-34.996 20.17-55.044 22.84-40.195 5.353-79.953-20.233-98.284-54.049-11.451-21.124-16.742-45.925-25.999-67.897a6138.311 6138.311 0 00-37.028.044c-37.772.162-68.516.683-68.516.683s36.545-45.184 68.379-28.444c10.174 5.35 20.829 10.124 30.622 14.146-5.563-9.99-12.581-18.977-22.234-26.203-19.036-14.248-44.817-18.245-69.19-17.184-25.594 1.114-51.423 7.51-72.22 21.48C81.935 73.37 66.636 117.17 53.541 157.983l31.651 14.811c13.577-10.956 33.429-21.793 51.728-12.171 31.834 16.741 68.404 27.856 68.404 27.856s-30.495-.258-68.267-.095c-6.344.027-12.482.065-18.317.108l351.401 164.434c115.903 1.523 203.293-4.327 313.427 0 5.744.225 18.663-27.879 18.706-35.275.304-52.128-4.006-105.655-27.44-152.973zm-112.542 14.182a6060.99 6060.99 0 00-68.516.684s36.545-45.185 68.379-28.444c31.835 16.74 68.404 27.855 68.404 27.855s-30.495-.257-68.267-.095z" fill="#F2F2F2"/><path opacity=".3" d="M760.714 333.499c0-17.819-11.819-32.264-26.399-32.264-9.164 0-17.235 5.708-21.969 14.372a16.832 16.832 0 00-5.045-.774c-4.436.07-8.672 1.739-11.82 4.658-4.267-10.803-13.315-18.256-23.788-18.256-9.792 0-18.332 6.52-22.889 16.197-2.674-1.675-5.816-2.579-9.036-2.599-11.189 0-20.26 11.086-20.26 24.761a28.757 28.757 0 003.192 13.333h132.69c3.558-5.933 5.393-12.63 5.324-19.428z" fill="#FE9C42"/><path d="M814.584 354.45H0v-1.523h813.768l.816 1.523z" fill="#2F2E41"/><path d="M345.774 214.19s5.13-35.118 13.68-25.54c8.551 9.577 0 23.943 0 23.943l-6.84 7.982-6.84-4.789v-1.596z" fill="#FFB8B8"/><path d="M325.252 225.363s17.101-17.558 20.522-14.366c3.42 3.193 13.68 4.789 11.97 11.174-1.71 6.385-37.622 27.136-37.622 27.136l5.13-23.944z" fill="#7E21F5"/><path opacity=".1" d="M325.252 225.363s17.101-17.558 20.522-14.366c3.42 3.193 13.68 4.789 11.97 11.174-1.71 6.385-37.622 27.136-37.622 27.136l5.13-23.944z" fill="#000"/><path d="M227.776 223.767v12.77s-1.71 28.732 8.551 27.136 5.13-25.54 5.13-25.54l-1.71-14.366h-11.971zM232.907 316.349s-15.391 22.347-20.521 23.944c-5.131 1.596-32.492 15.962-35.913 30.328l-23.941 28.733 11.971 14.366s54.723-54.272 70.114-59.061c15.391-4.789 30.782-28.732 30.782-28.732l-32.492-9.578zM354.324 279.636s32.492 4.788 27.362 23.943c-5.131 19.155-54.724 59.061-54.724 59.061l-1.71 9.578-18.811 3.192-8.55-7.981 1.71-4.789s20.521-17.559 22.231-23.944c1.71-6.384 20.521-31.924 29.072-33.521l-11.971-6.385 15.391-19.154z" fill="#FFB8B8"/><path d="M157.662 399.354s6.841-9.578-3.42-7.982c-10.261 1.597-17.101 3.193-17.101 9.578s8.55 51.079 18.811 47.887c10.261-3.193 1.71-17.559 1.71-17.559s5.13-12.77 8.551-14.366c3.42-1.596 3.42-9.577 0-9.577-3.421 0-10.261-4.789-8.551-7.981zM303.021 364.236s0-7.981-6.84 0c-6.841 7.982-10.261 14.367-3.421 19.155 6.841 4.789 30.782 15.963 30.782 15.963s25.652 4.788 22.232-6.385c0 0-17.101-7.981-17.101-14.366s-.001-17.559-5.131-14.367c-5.13 3.193-20.521 4.789-20.521 0zM270.529 244.518s-23.941 3.193-22.231 35.118c0 0-30.782 28.732-22.232 38.309 8.551 9.578 27.362 27.136 34.202 22.348 6.841-4.789 27.362-41.503 27.362-41.503s47.883 15.963 56.433 7.982c8.551-7.982 17.101-27.136 17.101-27.136l-42.752-20.752-47.883-14.366z" fill="#2F2E41"/><path d="M337.223 153.533c11.334 0 20.521-8.576 20.521-19.155s-9.187-19.155-20.521-19.155c-11.334 0-20.521 8.576-20.521 19.155s9.187 19.155 20.521 19.155z" fill="#FFB8B8"/><path d="M321.832 135.974s-11.971 17.559-15.391 19.155 23.942 17.559 23.942 17.559 0-20.752 8.55-25.54l-17.101-11.174z" fill="#FFB8B8"/><path d="M320.122 153.533s-27.362-7.982-32.492 4.788c-5.13 12.77-17.101 36.714-15.391 52.676 1.71 15.963 5.13 12.77 0 17.559-5.13 4.789-8.55 1.596-6.84 7.981 1.71 6.385 3.42 6.385 1.71 9.578-1.71 3.192 20.521 14.366 39.332 15.962l18.811 1.596s0-28.732 3.421-35.117c3.42-6.385 10.26-19.155 10.26-23.944v-12.67c0-8.434-2.358-16.721-6.84-24.043 0 0-10.261-14.366-11.971-14.366z" fill="#7E21F5"/><path d="M299.601 159.918s-63.274 4.788-70.114 20.751c-6.841 15.962-10.261 47.887-3.421 47.887 6.841 0 15.391 3.192 17.101 0 1.71-3.193 8.551-35.117 10.261-35.117 1.71 0 53.013-4.789 53.013-4.789s22.231-25.54-6.84-28.732z" fill="#7E21F5"/><path d="M338.048 129.629s5.445-8.834 12.252-1.161 17.881-6.427 16.181-9.436c-1.7-3.008-7.703.136-17.991-3.004-10.288-3.139-30.106-9.534-33.425 11.327-3.319 20.862 4.586 18.675 4.586 18.675s3.623-18.486 6.898-13.176l3.275 5.31 2.84.652 5.384-9.187zM531.609 80.75c13.828 0 25.037-10.464 25.037-23.37 0-12.908-11.209-23.37-25.037-23.37-13.827 0-25.037 10.462-25.037 23.37 0 12.906 11.21 23.37 25.037 23.37z" fill="#2F2E41"/><path d="M523.606 74.677s1.296 21.768-1.296 21.768c-2.591 0 16.196 10.28 16.196 10.28l11.66-6.047v-7.256s-15.547-1.814-9.069-17.536c6.478-15.721-17.491-1.209-17.491-1.209zM469.19 313.523l-1.944 18.14 6.479 1.814 5.182-4.837 1.943-15.117h-11.66zM562.474 323.803l3.239 11.488 9.069 5.442 9.718-4.837-11.013-16.931-11.013 4.838z" fill="#9F616A"/><path d="M529.76 84.05c10.376 0 18.787-7.851 18.787-17.536 0-9.685-8.411-17.535-18.787-17.535-10.375 0-18.786 7.85-18.786 17.535s8.411 17.535 18.786 17.535zM518.424 132.121l-4.535-1.814s-7.774-4.233-8.422-12.698c-.647-8.465 6.478-19.35 6.478-19.35l10.365-3.023 12.178 9.252.131 14.935-16.195 12.698z" fill="#9F616A"/><path d="M513.889 99.469l-2.591-1.21s-12.957-.604-14.252 13.908c-1.296 14.512-5.83 38.699-5.83 38.699s-10.365 16.931-9.717 35.071l-5.183 15.721s-7.126 22.978 1.296 22.978c8.421 0 7.773-24.792 7.773-24.792s15.548-35.071 16.843-41.117c1.296-6.047 12.309-34.467 9.07-42.328-3.239-7.86 2.591-16.93 2.591-16.93zM523.606 137.563v6.652s4.535 4.837 2.591 7.86c-1.943 3.024-3.887 9.07-3.887 9.07l9.07 13.303 30.447 2.419 6.054-37.865-44.275-1.439zM552.109 95.236l5.183-2.419s11.013-7.256 20.082-8.465l27.856-17.536 18.138-40.513s-.648-21.768 4.535-19.35c5.182 2.42 4.534 21.164 4.534 21.164s-9.717 37.49-18.138 47.77c-8.422 10.279-38.869 27.21-38.869 27.21s-8.421 9.07-7.773 13.303c.648 4.232-15.548-21.164-15.548-21.164z" fill="#9F616A"/><path d="M528.141 161.145s-7.126-4.232-11.661 3.024c-4.535 7.256-12.956 9.07-18.138 30.838-5.183 21.768-17.491 56.235-20.73 58.653-3.239 2.419-16.843 27.815-9.069 63.491h12.956l11.012-51.397s35.63-41.118 38.221-58.049l11.66 63.491s.648 24.187 10.365 35.675l10.365 22.978 13.604-6.047-15.547-58.048s7.773-58.654 2.591-74.98l-.745-21.404s-21.281.845-34.884-8.225zM473.725 328.64h-7.774c-1.295 0-11.66 7.861-7.126 12.093 4.535 4.233 11.661 12.094 11.661 12.094s25.264 2.999 25.912-1.234c.648-4.232-11.013-13.278-11.013-13.278l-3.239-9.675s-6.478-6.652-8.421 0zM576.726 334.687s-11.013-.605-12.956-1.21c-1.944-.604-5.83 15.722 0 16.931 5.83 1.209 29.799 3.023 29.799 3.023s18.786-.604 17.491-5.442c-1.296-4.837-26.56-14.512-26.56-14.512s-3.239-6.047-7.774 1.21z" fill="#2F2E41"/><path d="M525.549 94.631l-3.239-1.814-3.887 3.024s11.661 7.256 9.07 13.907c-2.591 6.652-13.604 20.559-13.604 20.559s9.717 10.279 9.717 13.907c0 0 25.264-8.465 44.051 0 0 0 0-12.093 2.591-14.512 2.591-2.418 3.887-10.884-2.591-18.14-4.564-5.339-8.679-11-12.309-16.93l-6.478-3.629-3.336.988s6.575 6.873.097 7.478c-6.478.604-16.843-1.21-20.082-4.838z" fill="#FE9C42"/><path d="M549.908 17.535c-2.202 2.294-5.216 3.767-8.489 4.15-5.659.756-1.213 9.056-1.213 9.056s-1.617-3.018 1.617-5.66c3.234-2.64 8.085-4.15 8.085-7.546z" fill="#2F2E41"/><path d="M538.997 38.99c3.854 0 6.977-2.916 6.977-6.513s-3.123-6.513-6.977-6.513-6.978 2.916-6.978 6.513 3.124 6.513 6.978 6.513z" fill="#2F2E41"/><path d="M547.143 38.89c-5.39-2.628-14.664-4.695-19.591-4.547l1.247-4.448c4.362 2.766 13.586 4.872 19.59 4.547l-1.246 4.448z" fill="#FE9C42"/><path d="M536.006 39.282s-8.494 10.194-25.482 12.459c-16.989 2.265-3.641 27.184-3.641 27.184s-4.854-9.061 4.854-16.99c9.708-7.929 24.269-12.46 24.269-22.654z" fill="#2F2E41"/><path d="M536.654 38.677s4.854 15.857 12.135 18.123c7.281 2.265 3.64 26.05-8.494 28.316 0 0 10.314-13.025 4.247-23.22-6.067-10.194-9.708-18.122-7.888-23.22zM650.9 12.093h-44.699v4.838H650.9v-4.838z" fill="#2F2E41"/><path d="M650.9 29.024c2.147 0 3.887-6.497 3.887-14.512S653.047 0 650.9 0c-2.147 0-3.887 6.497-3.887 14.512s1.74 14.512 3.887 14.512zM606.201 29.024c2.147 0 3.887-6.497 3.887-14.512S608.348 0 606.201 0c-2.146 0-3.887 6.497-3.887 14.512s1.741 14.512 3.887 14.512zM673.573 337.419h-44.699v4.838h44.699v-4.838z" fill="#2F2E41"/><path d="M673.573 354.35c2.147 0 3.887-6.497 3.887-14.512s-1.74-14.512-3.887-14.512c-2.147 0-3.887 6.497-3.887 14.512s1.74 14.512 3.887 14.512zM628.874 354.35c2.147 0 3.887-6.497 3.887-14.512s-1.74-14.512-3.887-14.512c-2.146 0-3.886 6.497-3.886 14.512s1.74 14.512 3.886 14.512z" fill="#2F2E41"/><path opacity=".3" d="M158.346 333.499c0-17.819-11.819-32.264-26.399-32.264-9.164 0-17.235 5.708-21.968 14.372a16.842 16.842 0 00-5.045-.774c-4.437.07-8.673 1.739-11.821 4.658-4.267-10.803-13.315-18.256-23.788-18.256-9.792 0-18.332 6.52-22.89 16.197-2.673-1.675-5.815-2.579-9.035-2.599-11.189 0-20.26 11.086-20.26 24.761a28.746 28.746 0 003.192 13.333h132.69c3.558-5.933 5.393-12.63 5.324-19.428z" fill="#FE9C42"/></g><defs><filter id="filter0_d" x="-4" y="0" width="822.584" height="457" filterUnits="userSpaceOnUse" color-interpolation-filters="sRGB"><feFlood flood-opacity="0" result="BackgroundImageFix"/><feColorMatrix in="SourceAlpha" values="0 0 0 0 0 0 0 0 0 0 0 0 0 0 0 0 0 0 127 0"/><feOffset dy="4"/><feGaussianBlur stdDeviation="2"/><feColorMatrix values="0 0 0 0 0 0 0 0 0 0 0 0 0 0 0 0 0 0 0.25 0"/><feBlend in2="BackgroundImageFix" result="effect1_dropShadow"/><feBlend in="SourceGraphic" in2="effect1_dropShadow" result="shape"/></filter></defs></svg>